<?xml version="1.0" standalone="no"?>
<!DOCTYPE svg PUBLIC "-//W3C//DTD SVG 1.1//EN" "http://www.w3.org/Graphics/SVG/1.1/DTD/svg11.dtd" >
<svg xmlns="http://www.w3.org/2000/svg" xmlns:xlink="http://www.w3.org/1999/xlink" version="1.1">
<metadata>
Created by FontForge 20170731 at Tue Aug 29 22:26:21 2023
 By Aleksey,,,
Copyright (c) 2018 by MadeType. All rights reserved.
</metadata>
<defs>
<font id="MADEFutureX-Light" horiz-adv-x="495" >
  <font-face 
    font-family="MADE Future X"
    font-weight="300"
    font-stretch="normal"
    units-per-em="2048"
    panose-1="2 0 5 3 0 0 0 2 0 4"
    ascent="1638"
    descent="-410"
    x-height="1020"
    cap-height="1434"
    bbox="-172 -489.32 2783 1913"
    underline-thickness="102"
    underline-position="-307"
    unicode-range="U+0020-FB04"
  />
<missing-glyph horiz-adv-x="512" 
 />
    <glyph glyph-name=".notdef" horiz-adv-x="512" 
 />
    <glyph glyph-name=".null" horiz-adv-x="0" 
 />
    <glyph glyph-name="nonmarkingreturn" horiz-adv-x="682" 
 />
    <glyph glyph-name="space" unicode=" " horiz-adv-x="512" 
 />
    <glyph glyph-name="exclam" unicode="!" horiz-adv-x="591" 
d="M350 373h-108l-15 1061h135zM295 135q35 0 60.5 -24.5t25.5 -59.5t-25.5 -60.5t-60.5 -25.5t-59.5 25.5t-24.5 60.5t24.5 59.5t59.5 24.5z" />
    <glyph glyph-name="quotedbl" unicode="&#x22;" horiz-adv-x="626" 
d="M156 1069l-27 391h135l-26 -391h-82zM389 1069l-27 391h136l-27 -391h-82z" />
    <glyph glyph-name="numbersign" unicode="#" horiz-adv-x="1495" 
d="M1382 899h-307l-61 -346h297v-135h-322l-76 -418h-137l76 418h-330l-73 -418h-138l76 418h-274v135h299l61 346h-289v135h314l71 400h138l-72 -400h328l71 400h137l-71 -400h282v-135zM877 553l61 346h-328l-63 -346h330z" />
    <glyph glyph-name="dollar" unicode="$" horiz-adv-x="1290" 
d="M1151 369q0 -96 -33.5 -170t-94 -120t-138.5 -71.5t-174 -32.5v-219h-136v217q-243 14 -425 119v170q74 -59 205.5 -103t279.5 -44q31 0 59.5 2t76 8.5t86 23t75 41.5t57.5 67t21 97q0 47 -19 86t-49.5 68t-82.5 56.5t-103 47.5t-127 45q-207 68 -279 104
q-124 63 -164 161q-26 62 -26 149q0 77 23 140t62 106t93 73.5t112.5 46.5t124.5 21v219h136v-219q188 -12 360 -94v-152q-181 113 -424 113q-51 0 -97.5 -7t-93 -25.5t-80 -46t-54.5 -73t-21 -102.5q0 -45 18.5 -80.5t38 -57.5t78.5 -49.5t91 -39.5t124 -43q11 -4 17 -6
q18 -6 53 -18q47 -16 71 -24.5t67.5 -25.5t67.5 -29.5t59.5 -33.5t55.5 -40.5t44 -47.5t36 -58t20.5 -68t8.5 -81z" />
    <glyph glyph-name="percent" unicode="%" horiz-adv-x="2045" 
d="M872 1087q0 -171 -92.5 -271.5t-259.5 -100.5q-165 0 -257.5 100.5t-92.5 271.5q0 172 92.5 273.5t257.5 101.5q167 0 259.5 -101t92.5 -274zM311 1087q0 -112 53 -174.5t156 -62.5q104 0 157.5 63t53.5 174q0 112 -54 176t-157 64t-156 -64t-53 -176zM1526 719
q165 0 257.5 -101t92.5 -272q0 -172 -92.5 -273.5t-257.5 -101.5q-167 0 -259.5 101t-92.5 274q0 171 93 272t259 101zM1526 106q103 0 156 64t53 176t-53 176t-156 64t-156 -64t-53 -176t53 -176t156 -64zM1442 1466h162l-996 -1499h-162z" />
    <glyph glyph-name="ampersand" unicode="&#x26;" horiz-adv-x="1622" 
d="M1534 0h-209q-14 12 -188 158q-208 -187 -469 -187q-134 0 -238 36.5t-169 101.5t-98.5 152t-33.5 192q0 90 25 168t70.5 138.5t94 104.5t111.5 86q-34 74 -43 142q-21 174 74 271t260 97q154 0 264 -55v-133q-51 24 -124 38.5t-136 14.5q-126 0 -175 -65t-24 -181
q6 -28 16 -55t43 -83t84 -120.5t145 -166t220 -222.5q1 -1 94 -88q113 131 213 344l123 -55q-114 -240 -235 -381q181 -157 305 -252zM668 106q198 0 366 142q-15 14 -46 42.5t-46 43.5q-312 295 -446 497q-109 -73 -171.5 -162t-62.5 -216q0 -149 106.5 -248t299.5 -99z
" />
    <glyph glyph-name="quotesingle" unicode="'" horiz-adv-x="393" 
d="M156 1069l-27 391h135l-26 -391h-82z" />
    <glyph glyph-name="parenleft" unicode="(" horiz-adv-x="890" 
d="M352 651q1 -299 115 -539t311 -370l-65 -113q-230 150 -365.5 420.5t-136.5 601.5q1 330 137 601t365 419l65 -112q-197 -129 -311 -369.5t-115 -538.5z" />
    <glyph glyph-name="parenright" unicode=")" horiz-adv-x="890" 
d="M539 651q-1 298 -115 538.5t-311 369.5l65 112q229 -148 365 -419t137 -601q-1 -331 -136.5 -601.5t-365.5 -420.5l-65 113q197 130 311 370t115 539z" />
    <glyph glyph-name="asterisk" unicode="*" horiz-adv-x="897" 
d="M768 1200l-264 -61l178 -205l-94 -68l-139 234l-140 -234l-94 68l178 205l-264 61l35 111l250 -107l-23 271h115l-23 -271l250 107z" />
    <glyph glyph-name="plus" unicode="+" horiz-adv-x="1187" 
d="M997 657v-135h-335v-342h-136v342h-336v135h336v330h136v-330h335z" />
    <glyph glyph-name="comma" unicode="," horiz-adv-x="487" 
d="M195 88h143l-156 -383h-84z" />
    <glyph glyph-name="hyphen" unicode="-" horiz-adv-x="987" 
d="M190 655h607v-135h-607v135z" />
    <glyph glyph-name="period" unicode="." horiz-adv-x="489" 
d="M256 135q35 0 59.5 -24.5t24.5 -59.5t-24.5 -60.5t-59.5 -25.5t-60.5 25.5t-25.5 60.5t25.5 59.5t60.5 24.5z" />
    <glyph glyph-name="slash" unicode="/" horiz-adv-x="954" 
d="M745 1712h142l-678 -2089h-141z" />
    <glyph glyph-name="zero" unicode="0" horiz-adv-x="1288" 
d="M643 1460q85 0 155.5 -21.5t120.5 -58.5t88.5 -92t62.5 -117t39 -139.5t20.5 -152.5t5.5 -162q0 -124 -11.5 -225.5t-44.5 -201t-86.5 -167t-142.5 -109t-207 -41.5q-85 0 -155 21.5t-120 58.5t-88 92.5t-61.5 117.5t-38.5 139.5t-20.5 152.5t-5.5 162t5.5 162
t20.5 152.5t38.5 139.5t61.5 117t88 92t120 58.5t155 21.5zM643 106q72 0 128 21.5t94 63t63.5 94.5t39.5 125t19.5 144.5t5.5 162.5q0 109 -8 193t-30.5 165t-60.5 133.5t-101.5 84.5t-149.5 32q-85 0 -148.5 -32t-101 -84.5t-60 -133.5t-30.5 -165t-8 -193
q0 -90 5.5 -162.5t19.5 -144.5t39.5 -125t63 -94.5t93 -63t127.5 -21.5z" />
    <glyph glyph-name="one" unicode="1" horiz-adv-x="854" 
d="M508 1434h135v-1434h-135v1280l-395 -221v155z" />
    <glyph glyph-name="two" unicode="2" horiz-adv-x="1216" 
d="M358 133h725v-133h-929v133q369 341 466 440q178 178 233 294q42 88 42 188q0 69 -23.5 120.5t-57 79t-79 44.5t-79.5 21.5t-68 4.5q-199 0 -395 -162v158q185 139 401 139q213 0 327.5 -104t114.5 -301q0 -62 -11 -117t-31 -105t-58 -105t-81 -107t-111.5 -120.5
t-139 -136t-172.5 -162.5q-49 -45 -74 -69z" />
    <glyph glyph-name="three" unicode="3" horiz-adv-x="1245" 
d="M803 752q144 -37 226.5 -126t82.5 -229q0 -107 -44 -190.5t-118.5 -133.5t-165.5 -75t-192 -25q-271 0 -459 86v148q70 -38 187.5 -69.5t265.5 -31.5q70 0 136 16.5t123 50t91.5 91.5t34.5 133q0 135 -100 206t-265 71h-244v135h222q45 0 87 7t85 25.5t75 47t52 76
t20 108.5q0 57 -20 102t-52 72.5t-75 45.5t-85 25t-87 7q-196 0 -396 -108v143q205 100 396 100q208 0 335.5 -96.5t127.5 -269.5q0 -125 -65.5 -212t-178.5 -130z" />
    <glyph glyph-name="four" unicode="4" horiz-adv-x="1284" 
d="M1171 496v-134h-206v-362h-134v362h-718v134l718 938h134v-938h206zM283 496h548v716z" />
    <glyph glyph-name="five" unicode="5" horiz-adv-x="1179" 
d="M543 864q263 0 383.5 -114t120.5 -318q0 -210 -138.5 -334.5t-396.5 -124.5q-196 0 -379 78v144q187 -89 387 -89q178 0 281.5 89t103.5 229q0 153 -95 232t-267 79q-182 0 -322 -39h-18v15l88 723h749v-134h-630l-54 -454q95 18 187 18z" />
    <glyph glyph-name="six" unicode="6" horiz-adv-x="1224" 
d="M645 889q64 4 125 -5t124.5 -38.5t110.5 -77.5t77 -130t30 -189q0 -214 -129 -345t-338 -131q-118 0 -208.5 38.5t-147.5 102.5t-92.5 158t-49.5 195t-14 223q0 113 25.5 231.5t90 240.5t159.5 194q110 81 244 99t319 -30v-139q-136 51 -265 39t-217 -78
q-71 -52 -118 -142.5t-65.5 -178t-22.5 -183.5q181 136 362 146zM645 106q153 0 238.5 92t85.5 251q0 160 -85.5 235.5t-244.5 69.5q-78 -1 -175 -46.5t-179 -111.5q6 -113 26 -198t60 -153t109 -103.5t165 -35.5z" />
    <glyph glyph-name="seven" unicode="7" horiz-adv-x="1122" 
d="M92 1434h938v-134l-604 -1300h-147l602 1300h-789v134z" />
    <glyph glyph-name="eight" unicode="8" horiz-adv-x="1304" 
d="M877 788q148 -37 231.5 -133.5t83.5 -257.5q0 -106 -42 -188.5t-116 -133t-170.5 -76.5t-210.5 -26q-115 0 -211.5 26t-171 76.5t-116 133t-41.5 188.5q0 161 83.5 257.5t231.5 133.5q-205 72 -205 308q0 174 121.5 269t308.5 95q186 0 308 -95t122 -269
q0 -236 -206 -308zM365 1096q0 -125 77.5 -181.5t210.5 -56.5q131 0 209 56.5t78 181.5q0 112 -79.5 170.5t-207.5 58.5q-129 0 -208.5 -58t-79.5 -171zM653 106q173 0 285.5 73.5t112.5 217.5q0 79 -31.5 138.5t-87.5 94.5t-125.5 51.5t-153.5 16.5t-154 -16.5t-126 -51.5
t-87.5 -94t-31.5 -139q0 -98 55.5 -165t143 -96.5t200.5 -29.5z" />
    <glyph glyph-name="nine" unicode="9" horiz-adv-x="1202" 
d="M557 1460q100 0 179.5 -24t135 -70.5t94.5 -109t61 -146t32 -173.5t10 -200q0 -84 -15 -172t-45.5 -179t-85.5 -172.5t-128 -135.5q-222 -165 -564 -70v139q136 -52 265 -40t219 79q97 73 145.5 202t57.5 274q-166 -109 -361 -117q-64 -4 -125 5t-124 38.5t-110 77.5
t-76.5 130t-29.5 189q0 214 128 344.5t337 130.5zM233 985q0 -159 86 -235.5t244 -71.5q83 3 180 39.5t177 93.5q-4 127 -23 218t-60 159.5t-110.5 102.5t-169.5 34q-153 0 -238.5 -90.5t-85.5 -249.5z" />
    <glyph glyph-name="colon" unicode=":" horiz-adv-x="550" 
d="M276 135q35 0 59.5 -24.5t24.5 -59.5t-24.5 -60.5t-59.5 -25.5t-60.5 25.5t-25.5 60.5t25.5 59.5t60.5 24.5zM276 776q-35 0 -60.5 25.5t-25.5 60.5t25.5 60.5t60.5 25.5t59.5 -25.5t24.5 -60.5t-24.5 -60.5t-59.5 -25.5z" />
    <glyph glyph-name="semicolon" unicode=";" horiz-adv-x="550" 
d="M276 776q-35 0 -60.5 25.5t-25.5 60.5t25.5 60.5t60.5 25.5t59.5 -25.5t24.5 -60.5t-24.5 -60.5t-59.5 -25.5zM111 -295l96 383h143l-155 -383h-84z" />
    <glyph glyph-name="less" unicode="&#x3c;" horiz-adv-x="1187" 
d="M997 1020v-148l-643 -288l643 -291v-148l-807 365v147z" />
    <glyph glyph-name="equal" unicode="=" horiz-adv-x="1255" 
d="M190 846h875v-135h-875v135zM190 334v135h875v-135h-875z" />
    <glyph glyph-name="greater" unicode="&#x3e;" horiz-adv-x="1187" 
d="M190 1020l807 -363v-147l-807 -365v148l644 291l-644 288v148z" />
    <glyph glyph-name="question" unicode="?" horiz-adv-x="1116" 
d="M537 1460q208 0 319 -94t111 -252q0 -64 -16 -121t-51 -113.5t-70.5 -101t-94.5 -108.5q-37 -40 -51 -55.5t-43 -52t-40.5 -60.5t-22.5 -59t-11 -70h-123q0 59 15.5 112t48.5 103t60 82.5t73 82.5q9 10 14 15q39 43 64.5 75t54.5 76.5t43 91t14 95.5q0 27 -7 54
t-27.5 57.5t-52 53.5t-85 38.5t-122.5 15.5q-104 0 -207 -31t-180 -73v141q200 98 387 98zM506 135q35 0 59.5 -24.5t24.5 -59.5t-24.5 -60.5t-59.5 -25.5q-36 0 -61 25t-25 61q0 35 24.5 59.5t61.5 24.5z" />
    <glyph glyph-name="at" unicode="@" horiz-adv-x="2406" 
d="M1198 1522q243 0 438 -66t327 -188.5t202.5 -299t70.5 -395.5q0 -96 -12 -185t-41 -175t-72 -149t-110.5 -101.5t-151.5 -38.5q-121 0 -200.5 64t-112.5 178q-108 -193 -358 -193q-150 0 -252.5 69.5t-150.5 188t-48 279.5q0 247 114 392t337 145q233 0 342 -166v139h129
v-680q0 -281 200 -281q61 0 108 37.5t73 92.5t43 127.5t22.5 132.5t5.5 118q0 388 -230 603.5t-673 215.5q-188 0 -341.5 -53.5t-254 -142t-169 -206.5t-98.5 -243t-30 -256q0 -212 86 -398.5t232 -293.5q162 -121 388 -144.5t502 58.5v-135q-175 -54 -347 -60.5
t-334.5 38.5t-288.5 141q-172 130 -272.5 341.5t-100.5 452.5q0 97 16 195.5t53 201.5t91.5 195t138 174.5t186.5 142t242.5 94t300.5 34.5zM1192 109q165 0 243 107.5t78 293.5q0 187 -77.5 294t-243.5 107q-167 0 -245.5 -107t-78.5 -294q0 -90 18 -161.5t56 -126
t101.5 -84t148.5 -29.5z" />
    <glyph glyph-name="A" unicode="A" horiz-adv-x="1429" 
d="M1202 0l-139 362h-696l-140 -362h-145l555 1434h156l555 -1434h-146zM420 498h590l-295 762z" />
    <glyph glyph-name="B" unicode="B" horiz-adv-x="1359" 
d="M985 739q115 -40 185.5 -127t70.5 -221q0 -103 -35.5 -180t-98.5 -122t-143 -67t-176 -22h-577v1434h543q91 0 169.5 -23t139.5 -68t96 -119t35 -169q0 -114 -56.5 -193t-152.5 -123zM754 1298h-408v-503h408q44 0 84.5 7.5t80.5 26.5t69 48t47 74.5t18 103.5
q0 57 -18 101t-47 70.5t-69.5 43t-80 22.5t-84.5 6zM788 135q46 0 88 7t83.5 25t71.5 46t48.5 73.5t18.5 104.5q0 73 -27.5 127.5t-74 84t-98.5 43t-110 13.5h-442v-524h442z" />
    <glyph glyph-name="C" unicode="C" horiz-adv-x="1370" 
d="M823 1325q-135 0 -242 -47.5t-174 -131t-102 -192.5t-35 -237q0 -127 35 -236t102 -193t174 -131.5t242 -47.5q241 0 418 163v-174q-98 -66 -200.5 -95.5t-229.5 -29.5q-162 0 -293 58.5t-215 160.5t-129 236.5t-45 288.5q0 124 28 235t84.5 204t137 160.5t191.5 105.5
t241 38q127 0 229.5 -29.5t200.5 -95.5v-174q-178 164 -418 164z" />
    <glyph glyph-name="D" unicode="D" horiz-adv-x="1511" 
d="M618 1434q170 0 309 -44.5t241 -131.5t158 -225t56 -316t-56 -315.5t-158 -225t-241 -132t-309 -44.5h-407v1434h407zM618 135q295 0 459 147t164 435q0 289 -163.5 435t-459.5 146h-272v-1163h272z" />
    <glyph glyph-name="E" unicode="E" horiz-adv-x="1230" 
d="M346 135h758v-135h-893v1434h887v-136h-752v-503h705v-136h-705v-524z" />
    <glyph glyph-name="F" unicode="F" horiz-adv-x="1226" 
d="M1098 1298h-752v-503h717v-136h-717v-659h-135v1434h887v-136z" />
    <glyph glyph-name="G" unicode="G" horiz-adv-x="1464" 
d="M1159 784h135v-661q-188 -150 -485 -150q-130 0 -240.5 38t-191 106.5t-137 161.5t-84 204t-27.5 234q0 155 44.5 289t128.5 236t214.5 160t292.5 58q128 0 231 -29.5t199 -95.5v-174q-178 164 -416 164q-135 0 -242 -47.5t-174 -131t-102 -192.5t-35 -237
q0 -127 35 -236t102 -193t174 -131.5t242 -47.5q200 0 336 88v587z" />
    <glyph glyph-name="H" unicode="H" horiz-adv-x="1525" 
d="M1180 1434h135v-1434h-135v649h-836v-649h-133v1434h133v-650h836v650z" />
    <glyph glyph-name="I" unicode="I" horiz-adv-x="557" 
d="M211 1434h135v-1434h-135v1434z" />
    <glyph glyph-name="J" unicode="J" horiz-adv-x="1140" 
d="M371 1434h559v-928q0 -268 -122 -400.5t-390 -132.5q-159 0 -289 56v143q123 -63 301 -63q98 0 170.5 30t114 85.5t61 125t19.5 156.5v792h-424v136z" />
    <glyph glyph-name="K" unicode="K" horiz-adv-x="1288" 
d="M1040 0l-532 659l-162 -190v-469h-135v1434h135v-750l631 750h182l-561 -666l623 -768h-181z" />
    <glyph glyph-name="L" unicode="L" horiz-adv-x="1163" 
d="M346 135h729v-135h-864v1434h135v-1299z" />
    <glyph glyph-name="M" unicode="M" horiz-adv-x="1853" 
d="M1507 1434h135v-1434h-135v1186l-555 -856h-53l-553 856v-1186h-135v1434h135l580 -897z" />
    <glyph glyph-name="N" unicode="N" horiz-adv-x="1540" 
d="M1329 1434v-1434h-135l-848 1200v-1200h-135v1434h135l848 -1201v1201h135z" />
    <glyph glyph-name="O" unicode="O" horiz-adv-x="1648" 
d="M825 1460q162 0 295 -58.5t219.5 -159.5t133.5 -236t47 -289t-47 -288.5t-133.5 -236t-219.5 -160.5t-295 -59q-163 0 -296 58.5t-220 160.5t-133.5 236.5t-46.5 288.5q0 155 46.5 289.5t133.5 235.5t220 159.5t296 58.5zM825 109q135 0 242 47.5t174 131.5t102 193
t35 236q0 128 -35 237t-102 192.5t-174 131t-242 47.5t-242.5 -47.5t-175 -131t-102.5 -192.5t-35 -237q0 -101 22 -191.5t67 -167t110 -132t156 -86.5t200 -31z" />
    <glyph glyph-name="P" unicode="P" horiz-adv-x="1329" 
d="M733 1434q222 0 355 -114.5t133 -324.5q0 -211 -133 -325.5t-355 -114.5h-387v-555h-135v1434h522zM733 690q157 0 251.5 75.5t94.5 229.5t-94.5 228.5t-251.5 74.5h-387v-608h387z" />
    <glyph glyph-name="Q" unicode="Q" horiz-adv-x="1648" 
d="M930 -20q18 -34 46.5 -60t81 -51.5t143 -39t214.5 -13.5v-135q-262 0 -403.5 65.5t-200.5 226.5q-159 2 -289.5 62t-215.5 161.5t-131 235t-46 285.5q0 154 47 289t134 236t220 159.5t295 58.5t295 -58.5t219.5 -159.5t133.5 -236t47 -289q0 -189 -67.5 -346t-202.5 -262
t-320 -129zM270 717q0 -101 22 -191.5t67 -167t110 -132t156 -86.5t200 -31q135 0 242 47.5t174 131.5t102 193t35 236q0 128 -35 237t-102 192.5t-174 131t-242 47.5t-242.5 -47.5t-175 -131t-102.5 -192.5t-35 -237z" />
    <glyph glyph-name="R" unicode="R" horiz-adv-x="1386" 
d="M1278 0h-162l-379 555h-4h-387v-555h-135v1434h522q222 0 355 -114.5t133 -324.5q0 -170 -88 -278t-244 -144zM346 1298v-608h387q156 0 251 75.5t95 229.5q0 78 -26.5 137.5t-74 95t-109 53t-136.5 17.5h-387z" />
    <glyph glyph-name="S" unicode="S" horiz-adv-x="1290" 
d="M666 795q18 -6 55 -19q84 -28 127.5 -44.5t112 -53t102.5 -73.5t61 -98t27 -136q0 -106 -40.5 -185t-113 -124.5t-162.5 -67t-200 -21.5q-284 0 -485 121v170q75 -60 206 -104.5t279 -44.5q25 0 49 1t63.5 6.5t72.5 15t69.5 27.5t62 42.5t42 63t16.5 85.5
q0 57 -26.5 102.5t-82.5 81.5t-116.5 62t-155.5 57q-206 67 -276 102q-124 62 -166 158q-27 64 -27 154q0 84 28 151t74 110.5t109 72.5t129.5 41t138.5 12q230 0 430 -96v-154q-180 115 -424 115q-64 0 -121 -12t-109.5 -39t-83 -78.5t-30.5 -122.5q0 -32 8.5 -59t20.5 -47
t39 -40t48.5 -33.5t65 -31t73 -28.5t87.5 -31q15 -5 23 -8z" />
    <glyph glyph-name="T" unicode="T" horiz-adv-x="1175" 
d="M1087 1434v-136h-432v-1298h-135v1298h-432v136h999z" />
    <glyph glyph-name="U" unicode="U" horiz-adv-x="1439" 
d="M1094 1434h135v-912q0 -257 -127 -403t-383 -146q-129 0 -226.5 39t-159 112t-92 173t-30.5 225v912h135v-912q0 -191 90.5 -302t282.5 -111q193 0 284 111t91 302v912z" />
    <glyph glyph-name="V" unicode="V" horiz-adv-x="1400" 
d="M1188 1434h145l-557 -1434h-153l-555 1434h145l487 -1258z" />
    <glyph glyph-name="W" unicode="W" horiz-adv-x="1953" 
d="M1747 1434h139l-413 -1434h-148l-348 1204l-346 -1204h-148l-415 1434h141l348 -1223l348 1223h146l348 -1223z" />
    <glyph glyph-name="X" unicode="X" horiz-adv-x="1396" 
d="M1319 0h-166l-455 631l-454 -631h-166l536 745l-495 689h166l413 -574l414 574h168l-498 -689z" />
    <glyph glyph-name="Y" unicode="Y" horiz-adv-x="1370" 
d="M1313 1434l-561 -846v-588h-136v588l-559 846h160l467 -703l469 703h160z" />
    <glyph glyph-name="Z" unicode="Z" horiz-adv-x="1298" 
d="M295 135h874v-135h-1040v135l840 1163h-832v136h998v-136z" />
    <glyph glyph-name="bracketleft" unicode="[" horiz-adv-x="765" 
d="M623 1577h-277v-1819h277v-135h-412v2089h412v-135z" />
    <glyph glyph-name="backslash" unicode="\" horiz-adv-x="956" 
d="M209 1712l680 -2089h-144l-677 2089h141z" />
    <glyph glyph-name="bracketright" unicode="]" horiz-adv-x="765" 
d="M420 1577h-277v135h412v-2089h-412v135h277v1819z" />
    <glyph glyph-name="asciicircum" unicode="^" horiz-adv-x="899" 
d="M776 1004h-160l-167 278l-168 -278h-158l262 430h129z" />
    <glyph glyph-name="underscore" unicode="_" horiz-adv-x="1363" 
d="M150 -84h1064v-135h-1064v135z" />
    <glyph glyph-name="grave" unicode="`" horiz-adv-x="684" 
d="M326 1460l147 -260h-74l-188 260h115z" />
    <glyph glyph-name="a" unicode="a" horiz-adv-x="1210" 
d="M911 1020h129v-1020h-135v131q-110 -158 -336 -158q-150 0 -253 69.5t-150 188.5t-47 281q0 246 113 390.5t337 144.5q236 0 342 -166v139zM584 109q112 0 185.5 52.5t104.5 140.5t31 210q0 185 -77.5 292t-243.5 107q-167 0 -245.5 -107t-78.5 -292q0 -188 78.5 -295.5
t245.5 -107.5z" />
    <glyph glyph-name="b" unicode="b" horiz-adv-x="1222" 
d="M662 1047q224 0 338 -144.5t114 -390.5q0 -162 -47.5 -281t-150.5 -188.5t-254 -69.5q-235 0 -343 168v-141h-129v1434h136v-543q111 156 336 156zM649 109q166 0 244 108t78 295q0 185 -78 292t-244 107q-167 0 -245 -107t-78 -292q0 -188 78 -295.5t245 -107.5z" />
    <glyph glyph-name="c" unicode="c" horiz-adv-x="991" 
d="M590 911q-168 0 -249 -107.5t-81 -291.5q0 -186 81 -294.5t249 -108.5q96 0 173.5 29t119.5 69v-164q-107 -70 -293 -70q-226 0 -348.5 147t-122.5 392q0 243 122.5 389t348.5 146q172 0 293 -76v-164q-43 42 -120.5 73t-172.5 31z" />
    <glyph glyph-name="d" unicode="d" horiz-adv-x="1210" 
d="M905 1434h135v-1434h-129v141q-108 -168 -342 -168q-150 0 -253 69.5t-150 188.5t-47 281q0 246 113 390.5t337 144.5q228 0 336 -156v543zM584 109q112 0 185.5 52.5t104.5 140.5t31 210q0 185 -77.5 292t-243.5 107q-167 0 -245.5 -107t-78.5 -292q0 -188 78.5 -295.5
t245.5 -107.5z" />
    <glyph glyph-name="e" unicode="e" horiz-adv-x="1067" 
d="M555 1047q211 0 318.5 -165.5t78.5 -437.5h-688q27 -342 332 -342q183 0 301 105v-150q-67 -42 -132.5 -63t-160.5 -21q-238 0 -361.5 146t-123.5 393q0 245 111 390t325 145zM262 578h555q0 66 -14.5 123.5t-44.5 105.5t-83.5 76t-125.5 28q-140 0 -208 -85.5
t-79 -247.5z" />
    <glyph glyph-name="f" unicode="f" horiz-adv-x="757" 
d="M457 1298q-44 -43 -57 -99t-13 -179h299v-133h-299v-887h-135v887h-184v133h184q0 144 21.5 231.5t93.5 149.5q58 47 161.5 57.5t219.5 -14.5v-123q-100 23 -178 17t-113 -40z" />
    <glyph glyph-name="g" unicode="g" horiz-adv-x="1212" 
d="M913 1020h129v-965q0 -110 -25 -195.5t-67.5 -141t-103 -91t-127.5 -50.5t-146 -15q-183 0 -342 71v140q142 -82 342 -82q46 0 88 8t88.5 33t80 64t55.5 107.5t22 157.5v70q-113 -158 -336 -158q-151 0 -254 69.5t-150.5 188.5t-47.5 281q0 246 114 390.5t338 144.5
q236 0 342 -166v139zM584 109q167 0 245 107.5t78 295.5q0 185 -78 292t-245 107q-166 0 -244 -107t-78 -292q0 -187 78 -295t244 -108z" />
    <glyph glyph-name="h" unicode="h" horiz-adv-x="1228" 
d="M657 1047q191 0 296.5 -112t105.5 -321v-614h-135v614q0 153 -75.5 231.5t-211.5 78.5q-113 0 -200 -70.5t-111 -144.5v-709h-136v1434h136v-541q53 63 137.5 108.5t193.5 45.5z" />
    <glyph glyph-name="i" unicode="i" 
d="M258 1196q-35 0 -59.5 25.5t-24.5 60.5t24.5 60.5t59.5 25.5t60.5 -25.5t25.5 -60.5t-25.5 -60.5t-60.5 -25.5zM190 0v1020h136v-1020h-136z" />
    <glyph glyph-name="j" unicode="j" 
d="M258 1196q-35 0 -59.5 25.5t-24.5 60.5t24.5 60.5t59.5 25.5t60.5 -25.5t25.5 -60.5t-25.5 -60.5t-60.5 -25.5zM190 4v1016h136v-1016q0 -144 -22 -231.5t-95 -149.5q-56 -46 -160.5 -57.5t-220.5 14.5v123q100 -23 178 -17t113 40q44 43 57.5 99t13.5 179z" />
    <glyph glyph-name="k" unicode="k" horiz-adv-x="1060" 
d="M848 0l-334 469l-188 -223v-246h-136v1434h136v-977l479 563h176l-377 -445l410 -575h-166z" />
    <glyph glyph-name="l" unicode="l" 
d="M190 1460h136v-1460h-136v1460z" />
    <glyph glyph-name="m" unicode="m" horiz-adv-x="1878" 
d="M1323 1047q189 0 287 -111t98 -322v-614h-135v614q0 154 -68.5 232t-201.5 78q-59 0 -111 -22.5t-87 -58t-58 -71t-35 -70.5q4 -27 4 -88v-614h-133v614q0 154 -70 232t-203 78q-59 0 -110.5 -21.5t-85 -56t-55.5 -69t-33 -68.5v-709h-136v1020h127v-127q130 154 314 154
q257 0 344 -201q57 89 146 145t202 56z" />
    <glyph glyph-name="n" unicode="n" horiz-adv-x="1228" 
d="M657 1047q191 0 296.5 -112t105.5 -321v-614h-135v614q0 152 -75 231t-210 79q-115 0 -202 -70t-111 -145v-709h-136v1020h129v-127q52 62 141 108t197 46z" />
    <glyph glyph-name="o" unicode="o" horiz-adv-x="1157" 
d="M584 1047q151 0 257 -68.5t157 -187.5t51 -279q0 -245 -120 -392t-345 -147t-345 147t-120 392q0 160 51 279t157 187.5t257 68.5zM584 109q166 0 244.5 108t78.5 295q0 185 -78.5 292t-244.5 107t-245 -107t-79 -292q0 -187 79 -295t245 -108z" />
    <glyph glyph-name="p" unicode="p" horiz-adv-x="1220" 
d="M662 1047q150 0 252.5 -69t150 -187t47.5 -279q0 -247 -113.5 -393t-336.5 -146q-225 0 -338 158v-541h-134v1430h127v-139q110 166 345 166zM647 109q166 0 245 108t79 295q0 185 -79 292t-245 107t-244.5 -107t-78.5 -292q0 -187 78.5 -295t244.5 -108z" />
    <glyph glyph-name="q" unicode="q" horiz-adv-x="1200" 
d="M903 1020h127v-1432h-135v543q-110 -158 -336 -158q-223 0 -336.5 146t-113.5 393q0 161 47.5 279t150 187t252.5 69q234 0 344 -166v139zM573 109q166 0 244 108t78 295q0 185 -78 292t-244 107q-167 0 -245 -107t-78 -292q0 -188 78 -295.5t245 -107.5z" />
    <glyph glyph-name="r" unicode="r" horiz-adv-x="786" 
d="M651 1047q23 0 68 -5v-127q-56 9 -80 9q-248 0 -313 -217v-707h-136v1020h129v-129q41 63 121.5 109.5t210.5 46.5z" />
    <glyph glyph-name="s" unicode="s" horiz-adv-x="946" 
d="M506 582q67 -23 112 -41t86.5 -40t66 -44.5t43.5 -51.5t26.5 -64.5t7.5 -80.5q0 -130 -107.5 -208.5t-281.5 -78.5q-194 0 -340 86v152q53 -39 145.5 -70.5t181.5 -31.5q27 0 54 2t66 11.5t68 25t50 45.5t21 71q0 61 -57 102t-189 87q-40 14 -59.5 20.5t-55 20.5
t-53.5 23.5t-46 26t-42.5 32t-32.5 37.5t-26 45.5t-14 53.5t-5 64q2 68 34.5 122t84 85.5t111.5 47.5t124 16q152 0 297 -60v-149q-47 30 -130 51.5t-159 21.5q-20 0 -38.5 -1t-55 -8.5t-62 -21t-45.5 -41.5t-20 -67q0 -68 53.5 -106.5t186.5 -83.5z" />
    <glyph glyph-name="t" unicode="t" horiz-adv-x="835" 
d="M467 141q53 -33 130.5 -26.5t150.5 49.5v-139q-63 -40 -143 -48.5t-146.5 9t-106.5 51.5q-16 14 -29 29.5t-22.5 36.5t-16.5 35t-11 42.5t-6.5 41.5t-3.5 48.5t-1 46.5v53v52v465h-194v133h194v278h135v-278h289v-133h-289v-465v-23q0 -125 11 -177t59 -81z" />
    <glyph glyph-name="u" unicode="u" horiz-adv-x="1226" 
d="M924 1020h133v-1020h-127v129q-53 -63 -142 -109.5t-198 -46.5q-190 0 -295 113.5t-105 321.5v612h136v-612q0 -153 75 -232.5t209 -79.5q114 0 200.5 71t113.5 146v707z" />
    <glyph glyph-name="v" unicode="v" horiz-adv-x="1038" 
d="M858 1020h143l-399 -1020h-145l-400 1020h144l329 -854z" />
    <glyph glyph-name="w" unicode="w" horiz-adv-x="1536" 
d="M1358 1020h141l-309 -1020h-148l-264 838l-264 -838h-147l-310 1020h142l243 -803l254 803h166l252 -803z" />
    <glyph glyph-name="x" unicode="x" horiz-adv-x="987" 
d="M950 0h-164l-282 414l-285 -414h-162l365 532l-338 488h164l256 -369l254 369h164l-336 -488z" />
    <glyph glyph-name="y" unicode="y" horiz-adv-x="1040" 
d="M858 1020h146l-402 -1020q-45 -113 -86.5 -190.5t-90.5 -135.5t-105.5 -85t-126.5 -27q-41 0 -89 10v121q59 -9 104.5 -3t86.5 39.5t80 98.5t84 174l-402 1018h146l327 -854z" />
    <glyph glyph-name="z" unicode="z" horiz-adv-x="983" 
d="M287 133h587v-133h-755v133l559 754h-547v133h715v-133z" />
    <glyph glyph-name="braceleft" unicode="{" horiz-adv-x="903" 
d="M508 1147q0 -228 -36 -335.5t-112 -141.5q75 -32 111.5 -140t36.5 -335q0 -169 18.5 -263.5t61.5 -130.5q24 -18 75.5 -29t127.5 1v-129q-192 -27 -289 55q-73 59 -101 165.5t-28 330.5v36v70t-1.5 62.5t-4 59.5t-8 50.5t-13.5 46t-20.5 34.5t-28.5 28t-37.5 15.5
t-48.5 6.5v131q40 0 68.5 11t46 40.5t27.5 54.5t14.5 79.5t5 86.5t0.5 104v36q0 222 28 328t101 167q37 31 91.5 46.5t103 15t94.5 -5.5v-131q-76 13 -127 1.5t-76 -30.5q-43 -36 -61.5 -130t-18.5 -261z" />
    <glyph glyph-name="bar" unicode="|" horiz-adv-x="557" 
d="M211 1712h135v-2089h-135v2089z" />
    <glyph glyph-name="braceright" unicode="}" horiz-adv-x="903" 
d="M532 1147q0 -191 8 -248q17 -126 92 -154q26 -10 60 -10v-131q-39 0 -67.5 -11t-45.5 -40t-27.5 -53.5t-14.5 -79t-4.5 -85.5t-0.5 -103v-37q0 -222 -28.5 -329.5t-100.5 -166.5q-99 -82 -290 -55v129q136 -21 204 28q43 36 61.5 130.5t18.5 263.5q0 229 35.5 336
t112.5 139q-77 34 -112.5 141t-35.5 336q0 167 -18.5 261t-61.5 130q-72 52 -204 29v131q46 5 94 5.5t103 -15t93 -46.5q72 -61 100.5 -167.5t28.5 -327.5z" />
    <glyph glyph-name="asciitilde" unicode="~" horiz-adv-x="1234" 
d="M911 674h133q0 -46 -10.5 -85.5t-34 -74t-67 -54.5t-103.5 -20q-63 0 -128 24.5t-108.5 54.5t-92 54.5t-82.5 24.5q-92 0 -92 -94h-136q0 33 5.5 63t20.5 61.5t39 53.5t64.5 36.5t92.5 14.5q46 0 92 -17t83 -41t73 -48t76 -41t79 -17q96 0 96 105z" />
    <glyph glyph-name="exclamdown" unicode="&#xa1;" horiz-adv-x="593" 
d="M244 647h106l15 -1059h-136zM297 885q-35 0 -60.5 24.5t-25.5 59.5t25.5 60.5t60.5 25.5t60.5 -25.5t25.5 -60.5t-25.5 -59.5t-60.5 -24.5z" />
    <glyph glyph-name="cent" unicode="&#xa2;" horiz-adv-x="991" 
d="M590 911q-167 0 -248.5 -108.5t-81.5 -292.5t81.5 -292.5t248.5 -108.5q96 0 173.5 29t119.5 69v-162q-90 -61 -224 -70v-219h-135v219q-195 23 -300 166.5t-105 368.5t104.5 368t300.5 166v220h135v-220q134 -12 224 -73v-164q-42 42 -119.5 73t-173.5 31z" />
    <glyph glyph-name="sterling" unicode="&#xa3;" horiz-adv-x="1343" 
d="M412 133h798v-133h-1077v133q28 0 48.5 2t52.5 14.5t52.5 34.5t36 67t15.5 107v197h-205v133h205v297q0 79 9.5 143.5t36 128.5t70.5 107t117.5 69.5t171.5 26.5q93 0 187 -26t137 -58v-149q-143 98 -324 98q-151 0 -210.5 -83t-59.5 -257v-297h445v-133h-445v-197
q0 -152 -61 -225z" />
    <glyph glyph-name="currency" unicode="&#xa4;" horiz-adv-x="1187" 
d="M989 725q0 -139 -69 -233l139 -138l-94 -96l-144 143q-92 -57 -227 -57q-136 0 -225 57l-144 -143l-96 96l139 138q-69 94 -69 233t69 233l-139 138l96 96l144 -141q94 57 225 57q130 0 227 -57l144 141l94 -96l-139 -138q69 -94 69 -233zM340 725q0 -116 68 -182
t186 -66q119 0 186.5 65.5t67.5 182.5t-67.5 182.5t-186.5 65.5q-118 0 -186 -66t-68 -182z" />
    <glyph glyph-name="yen" unicode="&#xa5;" horiz-adv-x="1370" 
d="M1313 1434l-490 -740h267v-133h-338v-147h338v-133h-338v-281h-134v281h-321v133h321v147h-321v133h250l-490 740h160l467 -705l469 705h160z" />
    <glyph glyph-name="brokenbar" unicode="&#xa6;" horiz-adv-x="557" 
d="M211 -377v774h135v-774h-135zM211 1712h135v-774h-135v774z" />
    <glyph glyph-name="section" unicode="&#xa7;" horiz-adv-x="1376" 
d="M764 1081q51 -27 82.5 -44.5t77 -45t73 -48t62.5 -50t54 -55.5t38.5 -60.5t26.5 -69t7 -76.5t-11 -87q-26 -104 -107 -175t-203 -102q100 -64 155.5 -139t55.5 -176q0 -162 -121 -255t-315 -93q-146 0 -332 57v135q61 -22 153.5 -39.5t178.5 -17.5q18 0 39.5 2t58.5 8
t68.5 20.5t62 36.5t48.5 60t18 86q0 46 -20 84.5t-75 79.5t-86.5 59.5t-117.5 65.5q-16 9 -25 14q-51 27 -82.5 44.5t-76.5 44.5t-73 48t-62.5 50.5t-54 56t-38.5 60.5t-25.5 68.5t-6 76t11.5 86.5q26 106 106 176t203 100q-101 65 -157 140t-56 175q0 163 122 257t314 94
q145 0 334 -58v-137q-60 23 -153 41t-181 18q-15 0 -32 -1t-47.5 -6t-57.5 -13t-57 -24.5t-51.5 -38t-35.5 -56t-14 -76.5q0 -46 21.5 -85t76 -79t89 -61t117.5 -65q13 -7 20 -11zM1040 557q8 32 8 61t-7.5 56t-21 51.5t-36.5 49t-50 47t-64 46.5t-76.5 46.5t-90.5 48.5
q-8 4 -24.5 12t-24.5 12q-72 -5 -135.5 -26.5t-116 -68t-67.5 -112.5q-14 -64 -0.5 -117t60 -101.5t111.5 -91.5t167 -95q42 -21 51 -25q72 5 135 26.5t115 68t67 112.5z" />
    <glyph glyph-name="dieresis" unicode="&#xa8;" horiz-adv-x="892" 
d="M293 1407q35 0 59.5 -24.5t24.5 -59.5q0 -34 -24.5 -59t-59.5 -25q-34 0 -58 25t-24 59q0 35 24 59.5t58 24.5zM598 1407q34 0 59 -24.5t25 -59.5q0 -34 -25 -59t-59 -25q-35 0 -59.5 25t-24.5 59q0 35 24.5 59.5t59.5 24.5z" />
    <glyph glyph-name="copyright" unicode="&#xa9;" horiz-adv-x="1947" 
d="M559 723q0 128 53 232.5t155.5 167.5t236.5 63q149 0 266 -74v-131q-58 51 -117 75.5t-141 24.5q-167 0 -252.5 -97t-85.5 -261q0 -162 85.5 -259t252.5 -97q147 0 258 100v-127q-116 -78 -266 -78q-201 0 -323 133t-122 328zM973 1501q365 0 574.5 -209.5t209.5 -574.5
q0 -364 -209.5 -574.5t-574.5 -210.5q-364 0 -573.5 210.5t-209.5 574.5q0 365 209.5 574.5t573.5 209.5zM973 14q331 0 517.5 186.5t186.5 516.5q0 331 -186 516.5t-518 185.5q-330 0 -516.5 -185.5t-186.5 -516.5q0 -330 186.5 -516.5t516.5 -186.5z" />
    <glyph glyph-name="guillemotleft" unicode="&#xab;" horiz-adv-x="1087" 
d="M897 911l-215 -374l215 -373h-156l-215 373l215 374h156zM561 911l-215 -374l215 -373h-155l-216 373l216 374h155z" />
    <glyph glyph-name="registered" unicode="&#xae;" horiz-adv-x="1947" 
d="M1337 905q0 -103 -54.5 -174t-147.5 -100l241 -336h-131l-233 321h-238v-321h-108v899h356q138 0 226.5 -79t88.5 -210zM774 1085v-362h248q205 0 205 182q0 180 -205 180h-248zM975 1503q364 0 573 -209t209 -573q0 -365 -209 -574.5t-573 -209.5q-365 0 -575 209.5
t-210 574.5q0 364 210 573t575 209zM975 16q330 0 516 187t186 518q0 330 -186 516t-516 186q-331 0 -517 -186t-186 -516q0 -332 186 -518.5t517 -186.5z" />
    <glyph glyph-name="macron" unicode="&#xaf;" horiz-adv-x="856" 
d="M211 1366h434v-82h-434v82z" />
    <glyph glyph-name="degree" unicode="&#xb0;" horiz-adv-x="1040" 
d="M520 1460q166 0 258 -101t92 -274q0 -171 -92 -271.5t-258 -100.5t-258 100.5t-92 271.5q0 173 92 274t258 101zM520 848q103 0 156 62.5t53 174.5t-53 176t-156 64t-156 -64t-53 -176t53 -174.5t156 -62.5z" />
    <glyph glyph-name="plusminus" unicode="&#xb1;" horiz-adv-x="1187" 
d="M662 846h335v-135h-335v-342h-136v342h-336v135h336v330h136v-330zM190 94v135h807v-135h-807z" />
    <glyph glyph-name="acute" unicode="&#xb4;" horiz-adv-x="684" 
d="M358 1460h115l-188 -260h-74z" />
    <glyph glyph-name="paragraph" unicode="&#xb6;" horiz-adv-x="1208" 
d="M1038 1434v-136h-92v-1673h-135v1673h-174v-1673h-133v1143q-156 6 -245 95t-89 239q0 149 89.5 237.5t244.5 94.5h534z" />
    <glyph glyph-name="cedilla" unicode="&#xb8;" horiz-adv-x="757" 
d="M403 -119q70 -7 107 -43t37 -90q0 -78 -51 -120.5t-129 -49.5q-76 -9 -156 21v82q69 -28 133 -23q58 1 89.5 24.5t31.5 61.5q0 71 -98 78q-15 2 -93 2v55l52 107h75l-47 -103q33 0 49 -2z" />
    <glyph glyph-name="guillemotright" unicode="&#xbb;" horiz-adv-x="1087" 
d="M346 911l215 -374l-215 -373h-156l216 373l-216 374h156zM684 911l213 -374l-213 -373h-156l213 373l-213 374h156z" />
    <glyph glyph-name="questiondown" unicode="&#xbf;" horiz-adv-x="1114" 
d="M580 -303q103 0 207 31t178 73v-143q-192 -96 -385 -96q-208 0 -319 94t-111 252q0 119 56 216t175 226q89 97 117 141q51 78 51 156h123q0 -50 -14 -99t-30 -82.5t-51.5 -79.5t-53.5 -66t-62 -66q-40 -45 -65 -76.5t-54 -76.5t-43 -91.5t-14 -95.5q0 -26 7.5 -52.5
t28 -57t52 -53.5t85 -38.5t122.5 -15.5zM610 885q-35 0 -59.5 24.5t-24.5 59.5t24.5 60.5t59.5 25.5t60.5 -25.5t25.5 -60.5t-25.5 -59.5t-60.5 -24.5z" />
    <glyph glyph-name="Agrave" unicode="&#xc0;" horiz-adv-x="1429" 
d="M1202 0l-139 362h-696l-140 -362h-145l555 1434h156l555 -1434h-146zM420 498h590l-295 762zM604 1870l148 -260h-74l-189 260h115z" />
    <glyph glyph-name="Aacute" unicode="&#xc1;" horiz-adv-x="1429" 
d="M1202 0l-139 362h-696l-140 -362h-145l555 1434h156l555 -1434h-146zM420 498h590l-295 762zM846 1870h115l-189 -260h-74z" />
    <glyph glyph-name="Acircumflex" unicode="&#xc2;" horiz-adv-x="1429" 
d="M1202 0l-139 362h-696l-140 -362h-145l555 1434h156l555 -1434h-146zM420 498h590l-295 762zM961 1610h-103l-145 200l-146 -200h-100l190 260h113z" />
    <glyph glyph-name="Atilde" unicode="&#xc3;" horiz-adv-x="1429" 
d="M1202 0l-139 362h-696l-140 -362h-145l555 1434h156l555 -1434h-146zM420 498h590l-295 762zM889 1790h82q0 -72 -32 -120t-108 -48q-41 0 -77 19t-58 41.5t-48.5 41.5t-49.5 19q-59 0 -59 -82h-80q0 68 33.5 116t111.5 48q37 0 70.5 -19t54.5 -41.5t47.5 -41.5t52.5 -19
q20 0 33.5 11t18.5 27.5t6.5 27.5t1.5 20z" />
    <glyph glyph-name="Adieresis" unicode="&#xc4;" horiz-adv-x="1429" 
d="M1202 0l-139 362h-696l-140 -362h-145l555 1434h156l555 -1434h-146zM420 498h590l-295 762zM561 1817q35 0 59.5 -24.5t24.5 -59.5q0 -34 -24.5 -59t-59.5 -25q-34 0 -58 25t-24 59q0 35 24 59.5t58 24.5zM866 1817q34 0 59 -24.5t25 -59.5q0 -34 -25 -59t-59 -25
q-35 0 -59.5 25t-24.5 59q0 35 24.5 59.5t59.5 24.5z" />
    <glyph glyph-name="Aring" unicode="&#xc5;" horiz-adv-x="1429" 
d="M1202 0l-139 362h-696l-140 -362h-145l555 1434h156l555 -1434h-146zM420 498h590l-295 762zM715 1913q83 0 132.5 -49t49.5 -131q0 -83 -49.5 -132t-132.5 -49q-85 0 -135 49t-50 132q0 82 50 131t135 49zM715 1640q45 0 69.5 25.5t24.5 67.5q0 41 -24.5 65.5
t-69.5 24.5q-46 0 -71.5 -24.5t-25.5 -65.5q0 -42 25.5 -67.5t71.5 -25.5z" />
    <glyph glyph-name="AE" unicode="&#xc6;" horiz-adv-x="2066" 
d="M1178 135h759v-135h-895v369h-608l-198 -369h-154l770 1434h1077v-136h-751v-503h704v-136h-704v-524zM508 504h534v794h-108z" />
    <glyph glyph-name="Ccedilla" unicode="&#xc7;" horiz-adv-x="1368" 
d="M823 1325q-135 0 -242 -47.5t-174 -131t-102 -192.5t-35 -237q0 -127 35 -236t102 -193t174 -131.5t242 -47.5q239 0 416 163v-174q-98 -66 -200 -95.5t-230 -29.5h-14l-41 -90q33 0 49 -2q70 -7 106.5 -43t36.5 -90q0 -79 -50 -121t-128 -49q-78 -8 -158 21v82
q69 -27 135 -23q57 1 88 24.5t31 61.5q0 71 -98 78q-14 2 -92 2v55l47 101q-188 20 -324 124.5t-202 262t-66 350.5q0 155 44.5 289t128.5 236t214.5 160t292.5 58q128 0 230 -29.5t200 -95.5v-174q-178 164 -416 164z" />
    <glyph glyph-name="Egrave" unicode="&#xc8;" horiz-adv-x="1230" 
d="M346 135h758v-135h-893v1434h887v-136h-752v-503h705v-136h-705v-524zM612 1870l148 -260h-74l-188 260h114z" />
    <glyph glyph-name="Eacute" unicode="&#xc9;" horiz-adv-x="1230" 
d="M346 135h758v-135h-893v1434h887v-136h-752v-503h705v-136h-705v-524zM750 1870h114l-188 -260h-74z" />
    <glyph glyph-name="Ecircumflex" unicode="&#xca;" horiz-adv-x="1230" 
d="M346 135h758v-135h-893v1434h887v-136h-752v-503h705v-136h-705v-524zM913 1610h-102l-145 200l-146 -200h-100l190 260h113z" />
    <glyph glyph-name="Edieresis" unicode="&#xcb;" horiz-adv-x="1230" 
d="M346 135h758v-135h-893v1434h887v-136h-752v-503h705v-136h-705v-524zM512 1817q35 0 59.5 -24.5t24.5 -59.5q0 -34 -24.5 -59t-59.5 -25q-34 0 -58 25t-24 59q0 35 24 59.5t58 24.5zM817 1817q34 0 59 -24.5t25 -59.5q0 -34 -25 -59t-59 -25q-35 0 -59.5 25t-24.5 59
q0 35 24.5 59.5t59.5 24.5z" />
    <glyph glyph-name="Igrave" unicode="&#xcc;" horiz-adv-x="557" 
d="M211 1434h135v-1434h-135v1434zM174 1870l148 -260h-74l-189 260h115z" />
    <glyph glyph-name="Iacute" unicode="&#xcd;" horiz-adv-x="557" 
d="M211 1434h135v-1434h-135v1434zM391 1870h115l-189 -260h-73z" />
    <glyph glyph-name="Icircumflex" unicode="&#xce;" horiz-adv-x="557" 
d="M211 1434h135v-1434h-135v1434zM526 1610h-102l-145 200l-146 -200h-100l190 260h113z" />
    <glyph glyph-name="Idieresis" unicode="&#xcf;" horiz-adv-x="557" 
d="M211 1434h135v-1434h-135v1434zM125 1817q35 0 59.5 -24.5t24.5 -59.5q0 -34 -24.5 -59t-59.5 -25q-34 0 -58 25t-24 59q0 35 24 59.5t58 24.5zM430 1817q34 0 59 -24.5t25 -59.5q0 -34 -25 -59t-59 -25q-35 0 -59.5 25t-24.5 59q0 35 24.5 59.5t59.5 24.5z" />
    <glyph glyph-name="Eth" unicode="&#xd0;" horiz-adv-x="1599" 
d="M707 1434q170 0 309 -44.5t240.5 -131.5t157.5 -225t56 -316t-56 -316t-157.5 -225t-240.5 -131.5t-309 -44.5h-408v655h-201v121h201v658h408zM707 135q294 0 458 147t164 435q0 287 -164 434t-458 147h-275v-522h447v-121h-447v-520h275z" />
    <glyph glyph-name="Ntilde" unicode="&#xd1;" horiz-adv-x="1540" 
d="M1329 1434v-1434h-135l-848 1200v-1200h-135v1434h135l848 -1201v1201h135zM965 1790h82q0 -72 -32 -120t-108 -48q-41 0 -77 19t-58 41.5t-48.5 41.5t-49.5 19q-32 0 -46 -24.5t-14 -57.5h-79q0 68 33.5 116t111.5 48q37 0 70.5 -19t54.5 -41.5t47.5 -41.5t52.5 -19
q20 0 33.5 11t18.5 27.5t6.5 27.5t1.5 20z" />
    <glyph glyph-name="Ograve" unicode="&#xd2;" horiz-adv-x="1648" 
d="M825 1460q162 0 295 -58.5t219.5 -159.5t133.5 -236t47 -289t-47 -288.5t-133.5 -236t-219.5 -160.5t-295 -59q-163 0 -296 58.5t-220 160.5t-133.5 236.5t-46.5 288.5q0 155 46.5 289.5t133.5 235.5t220 159.5t296 58.5zM825 109q135 0 242 47.5t174 131.5t102 193
t35 236q0 128 -35 237t-102 192.5t-174 131t-242 47.5t-242.5 -47.5t-175 -131t-102.5 -192.5t-35 -237q0 -101 22 -191.5t67 -167t110 -132t156 -86.5t200 -31zM725 1870l147 -260h-73l-189 260h115z" />
    <glyph glyph-name="Oacute" unicode="&#xd3;" horiz-adv-x="1648" 
d="M825 1460q162 0 295 -58.5t219.5 -159.5t133.5 -236t47 -289t-47 -288.5t-133.5 -236t-219.5 -160.5t-295 -59q-163 0 -296 58.5t-220 160.5t-133.5 236.5t-46.5 288.5q0 155 46.5 289.5t133.5 235.5t220 159.5t296 58.5zM825 109q135 0 242 47.5t174 131.5t102 193
t35 236q0 128 -35 237t-102 192.5t-174 131t-242 47.5t-242.5 -47.5t-175 -131t-102.5 -192.5t-35 -237q0 -101 22 -191.5t67 -167t110 -132t156 -86.5t200 -31zM942 1870h115l-189 -260h-73z" />
    <glyph glyph-name="Ocircumflex" unicode="&#xd4;" horiz-adv-x="1648" 
d="M825 1460q162 0 295 -58.5t219.5 -159.5t133.5 -236t47 -289t-47 -288.5t-133.5 -236t-219.5 -160.5t-295 -59q-163 0 -296 58.5t-220 160.5t-133.5 236.5t-46.5 288.5q0 155 46.5 289.5t133.5 235.5t220 159.5t296 58.5zM825 109q135 0 242 47.5t174 131.5t102 193
t35 236q0 128 -35 237t-102 192.5t-174 131t-242 47.5t-242.5 -47.5t-175 -131t-102.5 -192.5t-35 -237q0 -101 22 -191.5t67 -167t110 -132t156 -86.5t200 -31zM1071 1610h-102l-146 200l-145 -200h-100l190 260h113z" />
    <glyph glyph-name="Otilde" unicode="&#xd5;" horiz-adv-x="1648" 
d="M825 1460q162 0 295 -58.5t219.5 -159.5t133.5 -236t47 -289t-47 -288.5t-133.5 -236t-219.5 -160.5t-295 -59q-163 0 -296 58.5t-220 160.5t-133.5 236.5t-46.5 288.5q0 155 46.5 289.5t133.5 235.5t220 159.5t296 58.5zM825 109q135 0 242 47.5t174 131.5t102 193
t35 236q0 128 -35 237t-102 192.5t-174 131t-242 47.5t-242.5 -47.5t-175 -131t-102.5 -192.5t-35 -237q0 -101 22 -191.5t67 -167t110 -132t156 -86.5t200 -31zM997 1790h82q0 -72 -31.5 -120t-107.5 -48q-41 0 -77 19t-58 41.5t-48.5 41.5t-49.5 19q-32 0 -46 -24.5
t-14 -57.5h-80q0 31 7 58t22.5 52t45.5 39.5t71 14.5q37 0 70.5 -19t54.5 -41.5t47.5 -41.5t52.5 -19t40.5 20.5t16.5 35.5t2 30z" />
    <glyph glyph-name="Odieresis" unicode="&#xd6;" horiz-adv-x="1648" 
d="M825 1460q162 0 295 -58.5t219.5 -159.5t133.5 -236t47 -289t-47 -288.5t-133.5 -236t-219.5 -160.5t-295 -59q-163 0 -296 58.5t-220 160.5t-133.5 236.5t-46.5 288.5q0 155 46.5 289.5t133.5 235.5t220 159.5t296 58.5zM825 109q135 0 242 47.5t174 131.5t102 193
t35 236q0 128 -35 237t-102 192.5t-174 131t-242 47.5t-242.5 -47.5t-175 -131t-102.5 -192.5t-35 -237q0 -101 22 -191.5t67 -167t110 -132t156 -86.5t200 -31zM670 1817q35 0 59.5 -24.5t24.5 -59.5q0 -34 -24.5 -59t-59.5 -25q-34 0 -58 25t-24 59q0 35 24 59.5t58 24.5z
M975 1817q34 0 59 -24.5t25 -59.5q0 -34 -25 -59t-59 -25q-35 0 -59.5 25t-24.5 59q0 35 24.5 59.5t59.5 24.5z" />
    <glyph glyph-name="multiply" unicode="&#xd7;" horiz-adv-x="1036" 
d="M846 815l-232 -231l232 -234l-94 -96l-234 233l-233 -233l-95 96l234 234l-234 231l95 96l233 -233l234 233z" />
    <glyph glyph-name="Oslash" unicode="&#xd8;" horiz-adv-x="1648" 
d="M1526 1460l-183 -221q177 -208 177 -522q0 -154 -47 -289t-133.5 -236.5t-219.5 -160t-295 -58.5q-244 0 -419 129l-107 -131h-176l184 224q-178 205 -178 522q0 155 46.5 289.5t133.5 235.5t220 159.5t296 58.5q247 0 418 -129l109 129h174zM270 717q0 -248 125 -414
l762 922q-137 100 -332 100q-109 0 -200 -31t-156 -86.5t-110 -132t-67 -167t-22 -191.5zM1378 717q0 251 -125 413l-759 -923q131 -98 331 -98q135 0 242 47.5t174 131t102 192.5t35 237z" />
    <glyph glyph-name="Ugrave" unicode="&#xd9;" horiz-adv-x="1439" 
d="M1094 1434h135v-912q0 -257 -127 -403t-383 -146q-129 0 -226.5 39t-159 112t-92 173t-30.5 225v912h135v-912q0 -191 90.5 -302t282.5 -111q193 0 284 111t91 302v912zM662 1870l147 -260h-74l-188 260h115z" />
    <glyph glyph-name="Uacute" unicode="&#xda;" horiz-adv-x="1439" 
d="M1094 1434h135v-912q0 -257 -127 -403t-383 -146q-129 0 -226.5 39t-159 112t-92 173t-30.5 225v912h135v-912q0 -191 90.5 -302t282.5 -111q193 0 284 111t91 302v912zM838 1870h114l-188 -260h-74z" />
    <glyph glyph-name="Ucircumflex" unicode="&#xdb;" horiz-adv-x="1439" 
d="M1094 1434h135v-912q0 -257 -127 -403t-383 -146q-129 0 -226.5 39t-159 112t-92 173t-30.5 225v912h135v-912q0 -191 90.5 -302t282.5 -111q193 0 284 111t91 302v912zM967 1610h-103l-145 200l-146 -200h-100l191 260h112z" />
    <glyph glyph-name="Udieresis" unicode="&#xdc;" horiz-adv-x="1439" 
d="M1094 1434h135v-912q0 -257 -127 -403t-383 -146q-129 0 -226.5 39t-159 112t-92 173t-30.5 225v912h135v-912q0 -191 90.5 -302t282.5 -111q193 0 284 111t91 302v912zM565 1817q35 0 59.5 -24.5t24.5 -59.5q0 -34 -24.5 -59t-59.5 -25q-34 0 -58 25t-24 59
q0 35 24 59.5t58 24.5zM870 1817q34 0 59 -24.5t25 -59.5q0 -34 -25 -59t-59 -25q-35 0 -59.5 25t-24.5 59q0 35 24.5 59.5t59.5 24.5z" />
    <glyph glyph-name="Yacute" unicode="&#xdd;" horiz-adv-x="1370" 
d="M1313 1434l-561 -846v-588h-136v588l-559 846h160l467 -703l469 703h160zM809 1870h115l-189 -260h-73z" />
    <glyph glyph-name="Thorn" unicode="&#xde;" horiz-adv-x="1329" 
d="M735 1153q222 0 354 -113.5t132 -324.5q0 -212 -132 -326.5t-354 -114.5h-389v-274h-135v1434h135v-281h389zM735 410q155 0 249.5 75.5t94.5 229.5q0 153 -94.5 229t-249.5 76h-389v-610h389z" />
    <glyph glyph-name="germandbls" unicode="&#xdf;" horiz-adv-x="1230" 
d="M764 772q170 -27 264 -115t94 -262q0 -85 -23 -155.5t-62.5 -117t-93 -81t-115 -48.5t-127.5 -19.5t-132 6.5v129q191 -22 299 49.5t111 236.5q2 59 -14 106.5t-41.5 78.5t-63.5 54t-74 35t-80 19t-74 8.5t-63 1.5v127q68 0 119.5 19t80.5 47t46.5 66t23 69.5t5.5 63.5
q0 112 -61.5 174.5t-184.5 62.5q-44 0 -80 -7t-73 -27.5t-62 -54.5t-41 -92.5t-16 -137.5v-1008h-136v1016q0 217 102 330.5t306 113.5q186 0 282.5 -99.5t96.5 -270.5q0 -105 -54.5 -191t-158.5 -127z" />
    <glyph glyph-name="agrave" unicode="&#xe0;" horiz-adv-x="1210" 
d="M911 1020h129v-1020h-135v131q-110 -158 -336 -158q-150 0 -253 69.5t-150 188.5t-47 281q0 246 113 390.5t337 144.5q236 0 342 -166v139zM584 109q112 0 185.5 52.5t104.5 140.5t31 210q0 185 -77.5 292t-243.5 107q-167 0 -245.5 -107t-78.5 -292q0 -188 78.5 -295.5
t245.5 -107.5zM532 1460l148 -260h-74l-188 260h114z" />
    <glyph glyph-name="aacute" unicode="&#xe1;" horiz-adv-x="1210" 
d="M911 1020h129v-1020h-135v131q-110 -158 -336 -158q-150 0 -253 69.5t-150 188.5t-47 281q0 246 113 390.5t337 144.5q236 0 342 -166v139zM584 109q112 0 185.5 52.5t104.5 140.5t31 210q0 185 -77.5 292t-243.5 107q-167 0 -245.5 -107t-78.5 -292q0 -188 78.5 -295.5
t245.5 -107.5zM702 1460h115l-188 -260h-74z" />
    <glyph glyph-name="acircumflex" unicode="&#xe2;" horiz-adv-x="1210" 
d="M911 1020h129v-1020h-135v131q-110 -158 -336 -158q-150 0 -253 69.5t-150 188.5t-47 281q0 246 113 390.5t337 144.5q236 0 342 -166v139zM584 109q112 0 185.5 52.5t104.5 140.5t31 210q0 185 -77.5 292t-243.5 107q-167 0 -245.5 -107t-78.5 -292q0 -188 78.5 -295.5
t245.5 -107.5zM846 1200h-103l-145 201l-145 -201h-101l191 260h112z" />
    <glyph glyph-name="atilde" unicode="&#xe3;" horiz-adv-x="1210" 
d="M911 1020h129v-1020h-135v131q-110 -158 -336 -158q-150 0 -253 69.5t-150 188.5t-47 281q0 246 113 390.5t337 144.5q236 0 342 -166v139zM584 109q112 0 185.5 52.5t104.5 140.5t31 210q0 185 -77.5 292t-243.5 107q-167 0 -245.5 -107t-78.5 -292q0 -188 78.5 -295.5
t245.5 -107.5zM772 1380h82q0 -72 -31.5 -120t-107.5 -48q-41 0 -77.5 19t-58 41.5t-48.5 41.5t-50 19q-59 0 -59 -82h-80q0 68 33.5 116t111.5 48q37 0 71 -19t54.5 -41.5t47.5 -41.5t53 -19t40.5 20.5t16.5 35.5t2 30z" />
    <glyph glyph-name="adieresis" unicode="&#xe4;" horiz-adv-x="1210" 
d="M911 1020h129v-1020h-135v131q-110 -158 -336 -158q-150 0 -253 69.5t-150 188.5t-47 281q0 246 113 390.5t337 144.5q236 0 342 -166v139zM584 109q112 0 185.5 52.5t104.5 140.5t31 210q0 185 -77.5 292t-243.5 107q-167 0 -245.5 -107t-78.5 -292q0 -188 78.5 -295.5
t245.5 -107.5zM442 1407q35 0 59.5 -24.5t24.5 -59.5q0 -34 -24.5 -59t-59.5 -25q-34 0 -58 25t-24 59q0 35 24 59.5t58 24.5zM748 1407q34 0 58.5 -24.5t24.5 -59.5q0 -34 -24.5 -59t-58.5 -25q-35 0 -59.5 25t-24.5 59q0 35 24.5 59.5t59.5 24.5z" />
    <glyph glyph-name="aring" unicode="&#xe5;" horiz-adv-x="1210" 
d="M911 1020h129v-1020h-135v131q-110 -158 -336 -158q-150 0 -253 69.5t-150 188.5t-47 281q0 246 113 390.5t337 144.5q236 0 342 -166v139zM584 109q112 0 185.5 52.5t104.5 140.5t31 210q0 185 -77.5 292t-243.5 107q-167 0 -245.5 -107t-78.5 -292q0 -188 78.5 -295.5
t245.5 -107.5zM594 1526q83 0 132.5 -49t49.5 -131q0 -83 -49.5 -132t-132.5 -49q-85 0 -134.5 49t-49.5 132q0 82 50 131t134 49zM594 1253q45 0 69.5 25.5t24.5 67.5q0 41 -24.5 65.5t-69.5 24.5q-46 0 -71 -24.5t-25 -65.5q0 -42 25 -67.5t71 -25.5z" />
    <glyph glyph-name="ae" unicode="&#xe6;" horiz-adv-x="1910" 
d="M1399 1047q211 0 318.5 -166.5t78.5 -438.5h-690q31 -340 334 -340q98 0 175.5 30t125.5 73v-150q-65 -41 -131.5 -61.5t-163.5 -20.5q-281 0 -406 207v-180h-135v129q-108 -156 -336 -156q-151 0 -253.5 69t-149.5 187.5t-47 280.5q0 246 113 391.5t337 145.5
q233 0 342 -166v139h129v-166q115 193 359 193zM582 109q85 0 148.5 29.5t101 84t55.5 126t18 161.5t-18 161.5t-55.5 126t-101 84t-148.5 29.5t-147.5 -29.5t-100.5 -84t-56 -126t-18 -161.5t18 -161.5t56 -126t100.5 -84t147.5 -29.5zM1106 578h555q0 66 -14.5 123.5
t-44.5 105.5t-83.5 76t-125.5 28q-267 0 -287 -333z" />
    <glyph glyph-name="ccedilla" unicode="&#xe7;" horiz-adv-x="991" 
d="M590 911q-166 0 -248 -107.5t-82 -291.5q0 -186 81.5 -294.5t248.5 -108.5q96 0 172.5 29t120.5 69v-164q-107 -70 -293 -70h-19l-41 -90q34 0 50 -2q70 -7 106.5 -43t36.5 -90q0 -78 -51 -120.5t-129 -49.5q-76 -9 -156 21v82q69 -28 133 -23q58 1 88.5 24.5t30.5 61.5
q0 71 -96 78q-15 2 -90 2l-2 55l47 103q-183 30 -281 171t-98 359q0 243 123 389t348 146q172 0 293 -76v-164q-46 42 -122 73t-171 31z" />
    <glyph glyph-name="egrave" unicode="&#xe8;" horiz-adv-x="1067" 
d="M555 1047q211 0 318.5 -165.5t78.5 -437.5h-688q27 -342 332 -342q183 0 301 105v-150q-67 -42 -132.5 -63t-160.5 -21q-238 0 -361.5 146t-123.5 393q0 245 111 390t325 145zM262 578h555q0 66 -14.5 123.5t-44.5 105.5t-83.5 76t-125.5 28q-140 0 -208 -85.5
t-79 -247.5zM475 1460l148 -260h-74l-189 260h115z" />
    <glyph glyph-name="eacute" unicode="&#xe9;" horiz-adv-x="1067" 
d="M555 1047q211 0 318.5 -165.5t78.5 -437.5h-688q27 -342 332 -342q183 0 301 105v-150q-67 -42 -132.5 -63t-160.5 -21q-238 0 -361.5 146t-123.5 393q0 245 111 390t325 145zM262 578h555q0 66 -14.5 123.5t-44.5 105.5t-83.5 76t-125.5 28q-140 0 -208 -85.5
t-79 -247.5zM676 1460h115l-189 -260h-74z" />
    <glyph glyph-name="ecircumflex" unicode="&#xea;" horiz-adv-x="1067" 
d="M555 1047q211 0 318.5 -165.5t78.5 -437.5h-688q27 -342 332 -342q183 0 301 105v-150q-67 -42 -132.5 -63t-160.5 -21q-238 0 -361.5 146t-123.5 393q0 245 111 390t325 145zM262 578h555q0 66 -14.5 123.5t-44.5 105.5t-83.5 76t-125.5 28q-140 0 -208 -85.5
t-79 -247.5zM803 1200h-103l-145 201l-145 -201h-101l191 260h112z" />
    <glyph glyph-name="edieresis" unicode="&#xeb;" horiz-adv-x="1067" 
d="M555 1047q211 0 318.5 -165.5t78.5 -437.5h-688q27 -342 332 -342q183 0 301 105v-150q-67 -42 -132.5 -63t-160.5 -21q-238 0 -361.5 146t-123.5 393q0 245 111 390t325 145zM262 578h555q0 66 -14.5 123.5t-44.5 105.5t-83.5 76t-125.5 28q-140 0 -208 -85.5
t-79 -247.5zM414 1407q35 0 59.5 -24.5t24.5 -59.5q0 -34 -24.5 -59t-59.5 -25q-34 0 -58 25t-24 59q0 35 24 59.5t58 24.5zM719 1407q34 0 59 -24.5t25 -59.5q0 -34 -25 -59t-59 -25q-35 0 -59.5 25t-24.5 59q0 35 24.5 59.5t59.5 24.5z" />
    <glyph glyph-name="igrave" unicode="&#xec;" 
d="M188 0v1020h136v-1020h-136zM145 1460l148 -260h-74l-188 260h114z" />
    <glyph glyph-name="iacute" unicode="&#xed;" 
d="M190 0v1020h136v-1020h-136zM377 1460h115l-189 -260h-74z" />
    <glyph glyph-name="icircumflex" unicode="&#xee;" 
d="M188 0v1020h136v-1020h-136zM504 1200h-103l-145 201l-145 -201h-101l191 260h112z" />
    <glyph glyph-name="idieresis" unicode="&#xef;" 
d="M188 0v1020h136v-1020h-136zM104 1407q35 0 59.5 -24.5t24.5 -59.5q0 -34 -24.5 -59t-59.5 -25q-33 0 -57 25t-24 59q0 35 23.5 59.5t57.5 24.5zM410 1407q34 0 59 -24.5t25 -59.5q0 -34 -25 -59t-59 -25q-35 0 -59.5 25t-24.5 59q0 35 24.5 59.5t59.5 24.5z" />
    <glyph glyph-name="eth" unicode="&#xf0;" horiz-adv-x="1157" 
d="M719 1290q178 -143 254 -345t76 -462q0 -241 -119 -375.5t-346 -134.5q-228 0 -346.5 134t-118.5 376q0 241 119 378.5t346 137.5q144 0 250 -71q-71 163 -230 282l-219 -149l-70 98l177 123q-85 44 -216 92l43 121q168 -55 295 -129l179 123l69 -100zM584 109
q168 0 244.5 95.5t76.5 278.5q0 383 -321 383q-324 0 -324 -383q0 -183 77 -278.5t247 -95.5z" />
    <glyph glyph-name="ntilde" unicode="&#xf1;" horiz-adv-x="1228" 
d="M657 1047q191 0 296.5 -112t105.5 -321v-614h-135v614q0 152 -75 231t-210 79q-115 0 -202 -70t-111 -145v-709h-136v1020h129v-127q52 62 141 108t197 46zM799 1380h82q0 -72 -32 -120t-108 -48q-41 0 -77 19t-58 41.5t-48.5 41.5t-49.5 19q-59 0 -59 -82h-80
q0 68 33.5 116t111.5 48q37 0 70.5 -19t54.5 -41.5t47.5 -41.5t52.5 -19q20 0 33.5 11t18.5 27.5t6.5 27.5t1.5 20z" />
    <glyph glyph-name="ograve" unicode="&#xf2;" horiz-adv-x="1157" 
d="M584 1047q151 0 257 -68.5t157 -187.5t51 -279q0 -245 -120 -392t-345 -147t-345 147t-120 392q0 160 51 279t157 187.5t257 68.5zM584 109q166 0 244.5 108t78.5 295q0 185 -78.5 292t-244.5 107t-245 -107t-79 -292q0 -187 79 -295t245 -108zM485 1460l148 -260h-74
l-188 260h114z" />
    <glyph glyph-name="oacute" unicode="&#xf3;" horiz-adv-x="1157" 
d="M584 1047q151 0 257 -68.5t157 -187.5t51 -279q0 -245 -120 -392t-345 -147t-345 147t-120 392q0 160 51 279t157 187.5t257 68.5zM584 109q166 0 244.5 108t78.5 295q0 185 -78.5 292t-244.5 107t-245 -107t-79 -292q0 -187 79 -295t245 -108zM696 1460h115l-188 -260
h-74z" />
    <glyph glyph-name="ocircumflex" unicode="&#xf4;" horiz-adv-x="1157" 
d="M584 1047q151 0 257 -68.5t157 -187.5t51 -279q0 -245 -120 -392t-345 -147t-345 147t-120 392q0 160 51 279t157 187.5t257 68.5zM584 109q166 0 244.5 108t78.5 295q0 185 -78.5 292t-244.5 107t-245 -107t-79 -292q0 -187 79 -295t245 -108zM829 1200h-102l-145 201
l-146 -201h-100l190 260h113z" />
    <glyph glyph-name="otilde" unicode="&#xf5;" horiz-adv-x="1157" 
d="M584 1047q151 0 257 -68.5t157 -187.5t51 -279q0 -245 -120 -392t-345 -147t-345 147t-120 392q0 160 51 279t157 187.5t257 68.5zM584 109q166 0 244.5 108t78.5 295q0 185 -78.5 292t-244.5 107t-245 -107t-79 -292q0 -187 79 -295t245 -108zM758 1380h82
q0 -72 -32 -120t-108 -48q-41 0 -77 19t-58 41.5t-48.5 41.5t-49.5 19q-59 0 -59 -82h-80q0 68 33.5 116t111.5 48q37 0 70.5 -19t54.5 -41.5t47.5 -41.5t52.5 -19q20 0 33.5 11t18.5 27.5t6.5 27.5t1.5 20z" />
    <glyph glyph-name="odieresis" unicode="&#xf6;" horiz-adv-x="1157" 
d="M584 1047q151 0 257 -68.5t157 -187.5t51 -279q0 -245 -120 -392t-345 -147t-345 147t-120 392q0 160 51 279t157 187.5t257 68.5zM584 109q166 0 244.5 108t78.5 295q0 185 -78.5 292t-244.5 107t-245 -107t-79 -292q0 -187 79 -295t245 -108zM430 1407q35 0 59.5 -24.5
t24.5 -59.5q0 -34 -24.5 -59t-59.5 -25q-34 0 -58 25t-24 59q0 35 24 59.5t58 24.5zM735 1407q34 0 59 -24.5t25 -59.5q0 -34 -25 -59t-59 -25q-35 0 -59.5 25t-24.5 59q0 35 24.5 59.5t59.5 24.5z" />
    <glyph glyph-name="divide" unicode="&#xf7;" horiz-adv-x="1187" 
d="M594 858q-32 0 -55 23t-23 55q0 31 23 53.5t55 22.5q31 0 53.5 -22.5t22.5 -53.5q0 -32 -22.5 -55t-53.5 -23zM594 307q31 0 53.5 -22.5t22.5 -53.5q0 -32 -22.5 -54.5t-53.5 -22.5q-32 0 -55 22.5t-23 54.5q0 31 23 53.5t55 22.5zM190 651h807v-135h-807v135z" />
    <glyph glyph-name="oslash" unicode="&#xf8;" horiz-adv-x="1167" 
d="M1120 1047l-155 -187q88 -137 88 -350q0 -245 -119.5 -391t-343.5 -146q-169 0 -285 86l-72 -88h-176l156 189q-88 137 -88 350q0 244 120 390.5t345 146.5q169 0 282 -86l72 86h176zM266 510q0 -147 43 -234l475 578q-75 57 -194 57q-85 0 -148.5 -29.5t-101.5 -84
t-56 -126t-18 -161.5zM911 510q0 146 -43 233l-475 -577q75 -57 197 -57q165 0 243 107.5t78 293.5z" />
    <glyph glyph-name="ugrave" unicode="&#xf9;" horiz-adv-x="1226" 
d="M924 1020h133v-1020h-127v129q-53 -63 -142 -109.5t-198 -46.5q-190 0 -295 113.5t-105 321.5v612h136v-612q0 -153 75 -232.5t209 -79.5q114 0 200.5 71t113.5 146v707zM557 1460l148 -260h-74l-189 260h115z" />
    <glyph glyph-name="uacute" unicode="&#xfa;" horiz-adv-x="1226" 
d="M924 1020h133v-1020h-127v129q-53 -63 -142 -109.5t-198 -46.5q-190 0 -295 113.5t-105 321.5v612h136v-612q0 -153 75 -232.5t209 -79.5q114 0 200.5 71t113.5 146v707zM745 1460h115l-188 -260h-74z" />
    <glyph glyph-name="ucircumflex" unicode="&#xfb;" horiz-adv-x="1226" 
d="M924 1020h133v-1020h-127v129q-53 -63 -142 -109.5t-198 -46.5q-190 0 -295 113.5t-105 321.5v612h136v-612q0 -153 75 -232.5t209 -79.5q114 0 200.5 71t113.5 146v707zM891 1200h-103l-145 201l-145 -201h-101l191 260h112z" />
    <glyph glyph-name="udieresis" unicode="&#xfc;" horiz-adv-x="1226" 
d="M924 1020h133v-1020h-127v129q-53 -63 -142 -109.5t-198 -46.5q-190 0 -295 113.5t-105 321.5v612h136v-612q0 -153 75 -232.5t209 -79.5q114 0 200.5 71t113.5 146v707zM489 1407q35 0 59.5 -24.5t24.5 -59.5q0 -34 -24.5 -59t-59.5 -25q-33 0 -57 25t-24 59
q0 35 23.5 59.5t57.5 24.5zM795 1407q34 0 59 -24.5t25 -59.5q0 -34 -25 -59t-59 -25q-35 0 -59.5 25t-24.5 59q0 35 24.5 59.5t59.5 24.5z" />
    <glyph glyph-name="yacute" unicode="&#xfd;" horiz-adv-x="1040" 
d="M858 1020h146l-402 -1020q-45 -113 -86.5 -190.5t-90.5 -135.5t-105.5 -85t-126.5 -27q-41 0 -89 10v121q59 -9 104.5 -3t86.5 39.5t80 98.5t84 174l-402 1018h146l327 -854zM659 1460h115l-188 -260h-74z" />
    <glyph glyph-name="thorn" unicode="&#xfe;" horiz-adv-x="1222" 
d="M662 1047q224 0 338 -145.5t114 -391.5q0 -247 -114 -392t-338 -145q-225 0 -336 156v-539h-136v1844h136v-545q111 158 336 158zM649 109q85 0 147.5 29.5t100.5 84t56 126t18 161.5t-18 161.5t-56 126t-100.5 84t-147.5 29.5t-148.5 -29.5t-101 -84t-55.5 -126
t-18 -161.5t18 -161.5t55.5 -126t101 -84t148.5 -29.5z" />
    <glyph glyph-name="ydieresis" unicode="&#xff;" horiz-adv-x="1040" 
d="M858 1020h146l-402 -1020q-45 -113 -86.5 -190.5t-90.5 -135.5t-105.5 -85t-126.5 -27q-41 0 -89 10v121q59 -9 104.5 -3t86.5 39.5t80 98.5t84 174l-402 1018h146l327 -854zM397 1407q35 0 59.5 -24.5t24.5 -59.5q0 -34 -24.5 -59t-59.5 -25q-34 0 -58 25t-24 59
q0 35 24 59.5t58 24.5zM702 1407q34 0 59 -24.5t25 -59.5q0 -34 -25 -59t-59 -25q-35 0 -59.5 25t-24.5 59q0 35 24.5 59.5t59.5 24.5z" />
    <glyph glyph-name="Amacron" unicode="&#x100;" horiz-adv-x="1429" 
d="M1202 0l-139 362h-696l-140 -362h-145l555 1434h156l555 -1434h-146zM420 498h590l-295 762zM498 1776h434v-82h-434v82z" />
    <glyph glyph-name="amacron" unicode="&#x101;" horiz-adv-x="1210" 
d="M911 1020h129v-1020h-135v131q-110 -158 -336 -158q-150 0 -253 69.5t-150 188.5t-47 281q0 246 113 390.5t337 144.5q236 0 342 -166v139zM584 109q112 0 185.5 52.5t104.5 140.5t31 210q0 185 -77.5 292t-243.5 107q-167 0 -245.5 -107t-78.5 -292q0 -188 78.5 -295.5
t245.5 -107.5zM383 1366h434v-82h-434v82z" />
    <glyph glyph-name="Abreve" unicode="&#x102;" horiz-adv-x="1429" 
d="M1202 0l-139 362h-696l-140 -362h-145l555 1434h156l555 -1434h-146zM420 498h590l-295 762zM846 1815h96q0 -96 -61 -151.5t-166 -55.5q-106 0 -167 56t-61 151h95q0 -113 133 -113q131 0 131 113z" />
    <glyph glyph-name="abreve" unicode="&#x103;" horiz-adv-x="1210" 
d="M911 1020h129v-1020h-135v131q-110 -158 -336 -158q-150 0 -253 69.5t-150 188.5t-47 281q0 246 113 390.5t337 144.5q236 0 342 -166v139zM584 109q112 0 185.5 52.5t104.5 140.5t31 210q0 185 -77.5 292t-243.5 107q-167 0 -245.5 -107t-78.5 -292q0 -188 78.5 -295.5
t245.5 -107.5zM733 1405h96q0 -96 -61 -151.5t-166 -55.5t-166 55.5t-61 151.5h94q0 -113 133 -113q131 0 131 113z" />
    <glyph glyph-name="Aogonek" unicode="&#x104;" horiz-adv-x="1429" 
d="M1184 -307q26 -26 73 -25t84 29v-94q-26 -22 -72 -28t-93 10t-72 50q-27 38 -29 86t28.5 108.5t92.5 121.5q14 14 30.5 29.5t20.5 19.5h-45l-139 362h-696l-140 -362h-145l555 1434h156l555 -1434h-35q-17 -14 -80 -86q-57 -68 -69.5 -129t20.5 -92zM420 498h590
l-295 762z" />
    <glyph glyph-name="aogonek" unicode="&#x105;" horiz-adv-x="1210" 
d="M883 -307q26 -26 73 -25t84 29v-94q-26 -22 -72 -28t-93 10t-72 50q-28 38 -29.5 86t28.5 108t93 122q37 37 51 49h-41v131q-110 -158 -336 -158q-223 0 -336.5 146t-113.5 393q0 161 47.5 279t150 187t252.5 69q232 0 342 -166v139h129v-1020h-30q-42 -42 -78 -86
q-57 -68 -69.5 -129t20.5 -92zM584 109q112 0 185.5 52.5t104.5 140.5t31 210q0 185 -77.5 292t-243.5 107q-167 0 -245.5 -107t-78.5 -292q0 -188 78.5 -295.5t245.5 -107.5z" />
    <glyph glyph-name="Cacute" unicode="&#x106;" horiz-adv-x="1370" 
d="M823 1325q-135 0 -242 -47.5t-174 -131t-102 -192.5t-35 -237q0 -127 35 -236t102 -193t174 -131.5t242 -47.5q241 0 418 163v-174q-98 -66 -200.5 -95.5t-229.5 -29.5q-162 0 -293 58.5t-215 160.5t-129 236.5t-45 288.5q0 124 28 235t84.5 204t137 160.5t191.5 105.5
t241 38q127 0 229.5 -29.5t200.5 -95.5v-174q-178 164 -418 164zM885 1870h114l-188 -260h-74z" />
    <glyph glyph-name="cacute" unicode="&#x107;" horiz-adv-x="991" 
d="M590 911q-168 0 -249 -107.5t-81 -291.5q0 -186 81 -294.5t249 -108.5q96 0 173.5 29t119.5 69v-164q-107 -70 -293 -70q-226 0 -348.5 147t-122.5 392q0 243 122.5 389t348.5 146q172 0 293 -76v-164q-43 42 -120.5 73t-172.5 31zM653 1460h115l-188 -260h-74z" />
    <glyph glyph-name="Ccircumflex" unicode="&#x108;" horiz-adv-x="1370" 
d="M823 1325q-135 0 -242 -47.5t-174 -131t-102 -192.5t-35 -237q0 -127 35 -236t102 -193t174 -131.5t242 -47.5q241 0 418 163v-174q-98 -66 -200.5 -95.5t-229.5 -29.5q-162 0 -293 58.5t-215 160.5t-129 236.5t-45 288.5q0 124 28 235t84.5 204t137 160.5t191.5 105.5
t241 38q127 0 229.5 -29.5t200.5 -95.5v-174q-178 164 -418 164zM1014 1610h-103l-145 200l-145 -200h-101l191 260h112z" />
    <glyph glyph-name="ccircumflex" unicode="&#x109;" horiz-adv-x="991" 
d="M590 911q-168 0 -249 -107.5t-81 -291.5q0 -186 81 -294.5t249 -108.5q96 0 173.5 29t119.5 69v-164q-107 -70 -293 -70q-226 0 -348.5 147t-122.5 392q0 243 122.5 389t348.5 146q172 0 293 -76v-164q-43 42 -120.5 73t-172.5 31zM797 1200h-103l-145 201l-146 -201
h-100l191 260h112z" />
    <glyph glyph-name="Cdotaccent" unicode="&#x10a;" horiz-adv-x="1370" 
d="M823 1325q-135 0 -242 -47.5t-174 -131t-102 -192.5t-35 -237q0 -127 35 -236t102 -193t174 -131.5t242 -47.5q241 0 418 163v-174q-98 -66 -200.5 -95.5t-229.5 -29.5q-162 0 -293 58.5t-215 160.5t-129 236.5t-45 288.5q0 124 28 235t84.5 204t137 160.5t191.5 105.5
t241 38q127 0 229.5 -29.5t200.5 -95.5v-174q-178 164 -418 164zM766 1817q35 0 59.5 -24.5t24.5 -59.5q0 -34 -24.5 -59t-59.5 -25q-34 0 -58 25t-24 59q0 35 24 59.5t58 24.5z" />
    <glyph glyph-name="cdotaccent" unicode="&#x10b;" horiz-adv-x="991" 
d="M590 911q-168 0 -249 -107.5t-81 -291.5q0 -186 81 -294.5t249 -108.5q96 0 173.5 29t119.5 69v-164q-107 -70 -293 -70q-226 0 -348.5 147t-122.5 392q0 243 122.5 389t348.5 146q172 0 293 -76v-164q-43 42 -120.5 73t-172.5 31zM565 1407q35 0 59.5 -24.5t24.5 -59.5
q0 -34 -24.5 -59t-59.5 -25q-34 0 -58 25t-24 59q0 35 24 59.5t58 24.5z" />
    <glyph glyph-name="Ccaron" unicode="&#x10c;" horiz-adv-x="1370" 
d="M823 1325q-135 0 -242 -47.5t-174 -131t-102 -192.5t-35 -237q0 -127 35 -236t102 -193t174 -131.5t242 -47.5q241 0 418 163v-174q-98 -66 -200.5 -95.5t-229.5 -29.5q-162 0 -293 58.5t-215 160.5t-129 236.5t-45 288.5q0 124 28 235t84.5 204t137 160.5t191.5 105.5
t241 38q127 0 229.5 -29.5t200.5 -95.5v-174q-178 164 -418 164zM932 1870h102l-190 -260h-113l-190 260h100l145 -201z" />
    <glyph glyph-name="ccaron" unicode="&#x10d;" horiz-adv-x="991" 
d="M590 911q-168 0 -249 -107.5t-81 -291.5q0 -186 81 -294.5t249 -108.5q96 0 173.5 29t119.5 69v-164q-107 -70 -293 -70q-226 0 -348.5 147t-122.5 392q0 243 122.5 389t348.5 146q172 0 293 -76v-164q-43 42 -120.5 73t-172.5 31zM707 1460h102l-191 -260h-112l-191 260
h101l145 -200z" />
    <glyph glyph-name="Dcaron" unicode="&#x10e;" horiz-adv-x="1511" 
d="M618 1434q170 0 309 -44.5t241 -131.5t158 -225t56 -316t-56 -315.5t-158 -225t-241 -132t-309 -44.5h-407v1434h407zM618 135q295 0 459 147t164 435q0 289 -163.5 435t-459.5 146h-272v-1163h272zM817 1870h103l-191 -260h-113l-190 260h100l146 -201z" />
    <glyph glyph-name="dcaron" unicode="&#x10f;" horiz-adv-x="1523" 
d="M905 1434h135v-1434h-129v141q-108 -168 -342 -168q-150 0 -253 69.5t-150 188.5t-47 281q0 246 113 390.5t337 144.5q228 0 336 -156v543zM584 109q112 0 185.5 52.5t104.5 140.5t31 210q0 185 -77.5 292t-243.5 107q-167 0 -245.5 -107t-78.5 -292q0 -188 78.5 -295.5
t245.5 -107.5zM1423 1434h142l-170 -398h-88z" />
    <glyph glyph-name="Dcroat" unicode="&#x110;" horiz-adv-x="1599" 
d="M707 1434q170 0 309 -44.5t240.5 -131.5t157.5 -225t56 -316t-56 -316t-157.5 -225t-240.5 -131.5t-309 -44.5h-408v655h-201v121h201v658h408zM707 135q294 0 458 147t164 435q0 287 -164 434t-458 147h-275v-522h447v-121h-447v-520h275z" />
    <glyph glyph-name="dcroat" unicode="&#x111;" horiz-adv-x="1255" 
d="M1229 1272v-123h-189v-1149h-129v139q-109 -166 -342 -166q-151 0 -253.5 69t-149.5 187.5t-47 280.5q0 246 113 391.5t337 145.5q229 0 336 -158v260h-340v123h340v162h135v-162h189zM582 109q85 0 148.5 29.5t101 84t55.5 126t18 161.5t-18 161.5t-55.5 126t-101 84
t-148.5 29.5t-147.5 -29.5t-100.5 -84t-56 -126t-18 -161.5t18 -161.5t56 -126t100.5 -84t147.5 -29.5z" />
    <glyph glyph-name="Emacron" unicode="&#x112;" horiz-adv-x="1230" 
d="M346 135h758v-135h-893v1434h887v-136h-752v-503h705v-136h-705v-524zM442 1776h435v-82h-435v82z" />
    <glyph glyph-name="emacron" unicode="&#x113;" horiz-adv-x="1067" 
d="M555 1047q211 0 318.5 -165.5t78.5 -437.5h-688q27 -342 332 -342q183 0 301 105v-150q-67 -42 -132.5 -63t-160.5 -21q-238 0 -361.5 146t-123.5 393q0 245 111 390t325 145zM262 578h555q0 66 -14.5 123.5t-44.5 105.5t-83.5 76t-125.5 28q-140 0 -208 -85.5
t-79 -247.5zM342 1366h434v-82h-434v82z" />
    <glyph glyph-name="Ebreve" unicode="&#x114;" horiz-adv-x="1230" 
d="M346 135h758v-135h-893v1434h887v-136h-752v-503h705v-136h-705v-524zM797 1815h96q0 -96 -61 -151.5t-166 -55.5q-106 0 -167 56t-61 151h94q0 -113 134 -113q131 0 131 113z" />
    <glyph glyph-name="ebreve" unicode="&#x115;" horiz-adv-x="1067" 
d="M555 1047q211 0 318.5 -165.5t78.5 -437.5h-688q27 -342 332 -342q183 0 301 105v-150q-67 -42 -132.5 -63t-160.5 -21q-238 0 -361.5 146t-123.5 393q0 245 111 390t325 145zM262 578h555q0 66 -14.5 123.5t-44.5 105.5t-83.5 76t-125.5 28q-140 0 -208 -85.5
t-79 -247.5zM709 1405h96q0 -96 -61 -151.5t-166 -55.5q-106 0 -167 56t-61 151h94q0 -113 134 -113q131 0 131 113z" />
    <glyph glyph-name="Edotaccent" unicode="&#x116;" horiz-adv-x="1230" 
d="M346 135h758v-135h-893v1434h887v-136h-752v-503h705v-136h-705v-524zM666 1817q35 0 59.5 -24.5t24.5 -59.5q0 -34 -24.5 -59t-59.5 -25q-34 0 -58 25t-24 59q0 35 24 59.5t58 24.5z" />
    <glyph glyph-name="edotaccent" unicode="&#x117;" horiz-adv-x="1067" 
d="M555 1047q211 0 318.5 -165.5t78.5 -437.5h-688q27 -342 332 -342q183 0 301 105v-150q-67 -42 -132.5 -63t-160.5 -21q-238 0 -361.5 146t-123.5 393q0 245 111 390t325 145zM262 578h555q0 66 -14.5 123.5t-44.5 105.5t-83.5 76t-125.5 28q-140 0 -208 -85.5
t-79 -247.5zM565 1407q35 0 59.5 -24.5t24.5 -59.5q0 -34 -24.5 -59t-59.5 -25q-34 0 -58 25t-24 59q0 35 24 59.5t58 24.5z" />
    <glyph glyph-name="Eogonek" unicode="&#x118;" horiz-adv-x="1230" 
d="M946 -307q26 -26 73.5 -25t84.5 29v-94q-27 -23 -73.5 -28.5t-94.5 10t-72 50.5q-25 35 -26.5 82.5t17.5 97.5t64 99.5t109 85.5h-817v1434h887v-136h-752v-503h705v-136h-705v-524h758v-135q-21 -9 -56 -34t-59 -52q-51 -57 -63.5 -123t20.5 -98z" />
    <glyph glyph-name="eogonek" unicode="&#x119;" horiz-adv-x="1067" 
d="M555 1047q211 0 318.5 -165.5t78.5 -437.5h-688q31 -342 332 -342q98 0 176 31t125 74v-150q-89 -89 -133 -139q-58 -65 -70 -128t21 -93q26 -26 74 -25t83 27v-92q-26 -22 -72 -27.5t-93 10.5t-72 50q-29 38 -31.5 87t28.5 110.5t97 123.5q20 16 39 35q-74 -23 -166 -23
q-237 0 -360 146t-123 393q0 245 111 390t325 145zM262 578h555q0 66 -14.5 123.5t-44.5 105.5t-83.5 76t-125.5 28q-268 0 -287 -333z" />
    <glyph glyph-name="Ecaron" unicode="&#x11a;" horiz-adv-x="1230" 
d="M346 135h758v-135h-893v1434h887v-136h-752v-503h705v-136h-705v-524zM811 1870h102l-190 -260h-113l-190 260h100l146 -201z" />
    <glyph glyph-name="ecaron" unicode="&#x11b;" horiz-adv-x="1067" 
d="M555 1047q211 0 318.5 -165.5t78.5 -437.5h-688q27 -342 332 -342q183 0 301 105v-150q-67 -42 -132.5 -63t-160.5 -21q-238 0 -361.5 146t-123.5 393q0 245 111 390t325 145zM262 578h555q0 66 -14.5 123.5t-44.5 105.5t-83.5 76t-125.5 28q-140 0 -208 -85.5
t-79 -247.5zM719 1460h102l-190 -260h-113l-190 260h100l145 -200z" />
    <glyph glyph-name="Gcircumflex" unicode="&#x11c;" horiz-adv-x="1464" 
d="M1159 784h135v-661q-188 -150 -485 -150q-130 0 -240.5 38t-191 106.5t-137 161.5t-84 204t-27.5 234q0 155 44.5 289t128.5 236t214.5 160t292.5 58q128 0 231 -29.5t199 -95.5v-174q-178 164 -416 164q-135 0 -242 -47.5t-174 -131t-102 -192.5t-35 -237
q0 -127 35 -236t102 -193t174 -131.5t242 -47.5q200 0 336 88v587zM1030 1606h-102l-146 200l-145 -200h-100l190 260h113z" />
    <glyph glyph-name="gcircumflex" unicode="&#x11d;" horiz-adv-x="1212" 
d="M913 1020h129v-965q0 -110 -25 -195.5t-67.5 -141t-103 -91t-127.5 -50.5t-146 -15q-183 0 -342 71v140q142 -82 342 -82q46 0 88 8t88.5 33t80 64t55.5 107.5t22 157.5v70q-113 -158 -336 -158q-151 0 -254 69.5t-150.5 188.5t-47.5 281q0 246 114 390.5t338 144.5
q236 0 342 -166v139zM584 109q167 0 245 107.5t78 295.5q0 185 -78 292t-245 107q-166 0 -244 -107t-78 -292q0 -187 78 -295t244 -108zM844 1200h-103l-145 201l-145 -201h-101l191 260h112z" />
    <glyph glyph-name="Gbreve" unicode="&#x11e;" horiz-adv-x="1464" 
d="M1159 784h135v-661q-188 -150 -485 -150q-130 0 -240.5 38t-191 106.5t-137 161.5t-84 204t-27.5 234q0 155 44.5 289t128.5 236t214.5 160t292.5 58q128 0 231 -29.5t199 -95.5v-174q-178 164 -416 164q-135 0 -242 -47.5t-174 -131t-102 -192.5t-35 -237
q0 -127 35 -236t102 -193t174 -131.5t242 -47.5q200 0 336 88v587zM934 1815h96q0 -96 -61 -151.5t-166 -55.5q-106 0 -167 56t-61 151h95q0 -113 133 -113q131 0 131 113z" />
    <glyph glyph-name="gbreve" unicode="&#x11f;" horiz-adv-x="1212" 
d="M913 1020h129v-965q0 -110 -25 -195.5t-67.5 -141t-103 -91t-127.5 -50.5t-146 -15q-183 0 -342 71v140q142 -82 342 -82q46 0 88 8t88.5 33t80 64t55.5 107.5t22 157.5v70q-113 -158 -336 -158q-151 0 -254 69.5t-150.5 188.5t-47.5 281q0 246 114 390.5t338 144.5
q236 0 342 -166v139zM584 109q167 0 245 107.5t78 295.5q0 185 -78 292t-245 107q-166 0 -244 -107t-78 -292q0 -187 78 -295t244 -108zM733 1405h96q0 -96 -61 -151.5t-166 -55.5t-166 55.5t-61 151.5h94q0 -113 133 -113q131 0 131 113z" />
    <glyph glyph-name="Gdotaccent" unicode="&#x120;" horiz-adv-x="1464" 
d="M1159 784h135v-661q-188 -150 -485 -150q-130 0 -240.5 38t-191 106.5t-137 161.5t-84 204t-27.5 234q0 155 44.5 289t128.5 236t214.5 160t292.5 58q128 0 231 -29.5t199 -95.5v-174q-178 164 -416 164q-135 0 -242 -47.5t-174 -131t-102 -192.5t-35 -237
q0 -127 35 -236t102 -193t174 -131.5t242 -47.5q200 0 336 88v587zM795 1817q35 0 59.5 -24.5t24.5 -59.5q0 -34 -24.5 -59t-59.5 -25q-34 0 -58 25t-24 59q0 35 24 59.5t58 24.5z" />
    <glyph glyph-name="gdotaccent" unicode="&#x121;" horiz-adv-x="1212" 
d="M913 1020h129v-965q0 -110 -25 -195.5t-67.5 -141t-103 -91t-127.5 -50.5t-146 -15q-183 0 -342 71v140q142 -82 342 -82q46 0 88 8t88.5 33t80 64t55.5 107.5t22 157.5v70q-113 -158 -336 -158q-151 0 -254 69.5t-150.5 188.5t-47.5 281q0 246 114 390.5t338 144.5
q236 0 342 -166v139zM584 109q167 0 245 107.5t78 295.5q0 185 -78 292t-245 107q-166 0 -244 -107t-78 -292q0 -187 78 -295t244 -108zM608 1407q35 0 59.5 -24.5t24.5 -59.5q0 -34 -24.5 -59t-59.5 -25q-34 0 -58 25t-24 59q0 35 24 59.5t58 24.5z" />
    <glyph glyph-name="Gcommaaccent" unicode="&#x122;" horiz-adv-x="1464" 
d="M1159 784h135v-661q-188 -150 -485 -150q-130 0 -240.5 38t-191 106.5t-137 161.5t-84 204t-27.5 234q0 155 44.5 289t128.5 236t214.5 160t292.5 58q128 0 231 -29.5t199 -95.5v-174q-178 164 -416 164q-135 0 -242 -47.5t-174 -131t-102 -192.5t-35 -237
q0 -127 35 -236t102 -193t174 -131.5t242 -47.5q200 0 336 88v587zM729 -188h109l-101 -246h-71z" />
    <glyph glyph-name="gcommaaccent" unicode="&#x123;" horiz-adv-x="1212" 
d="M913 1020h129v-965q0 -110 -25 -195.5t-67.5 -141t-103 -91t-127.5 -50.5t-146 -15q-183 0 -342 71v140q142 -82 342 -82q46 0 88 8t88.5 33t80 64t55.5 107.5t22 157.5v70q-113 -158 -336 -158q-151 0 -254 69.5t-150.5 188.5t-47.5 281q0 246 114 390.5t338 144.5
q236 0 342 -166v139zM584 109q167 0 245 107.5t78 295.5q0 185 -78 292t-245 107q-166 0 -244 -107t-78 -292q0 -187 78 -295t244 -108zM694 1655h88l-116 -398h-142z" />
    <glyph glyph-name="Hcircumflex" unicode="&#x124;" horiz-adv-x="1525" 
d="M1180 1434h135v-1434h-135v649h-836v-649h-133v1434h133v-650h836v650zM1010 1610h-103l-145 200l-146 -200h-100l191 260h112z" />
    <glyph glyph-name="hcircumflex" unicode="&#x125;" horiz-adv-x="1228" 
d="M657 1047q191 0 296.5 -112t105.5 -321v-614h-135v614q0 153 -75.5 231.5t-211.5 78.5q-113 0 -200 -70.5t-111 -144.5v-709h-136v1434h136v-541q53 63 137.5 108.5t193.5 45.5zM866 1542h-102l-146 201l-145 -201h-100l190 260h113z" />
    <glyph glyph-name="Hbar" unicode="&#x126;" horiz-adv-x="1728" 
d="M1620 1272v-123h-203v-1149h-135v649h-836v-649h-135v1149h-202v123h202v162h135v-162h836v162h135v-162h203zM1282 784v365h-836v-365h836z" />
    <glyph glyph-name="hbar" unicode="&#x127;" horiz-adv-x="1271" 
d="M702 1047q190 0 295 -113t105 -322v-612h-135v612q0 154 -74.5 234t-210.5 80q-59 0 -114 -22t-94 -56t-65.5 -70t-37.5 -69v-709h-135v1149h-189v123h189v162h135v-162h340v-123h-340v-256q51 63 136.5 108.5t194.5 45.5z" />
    <glyph glyph-name="Itilde" unicode="&#x128;" horiz-adv-x="557" 
d="M211 1434h135v-1434h-135v1434zM453 1790h82q0 -72 -32 -120t-108 -48q-41 0 -77 19t-58 41.5t-48.5 41.5t-49.5 19q-32 0 -46 -24.5t-14 -57.5h-79q0 68 33.5 116t111.5 48q37 0 70.5 -19t54.5 -41.5t47.5 -41.5t52.5 -19q20 0 33.5 11t18.5 27.5t6.5 27.5t1.5 20z" />
    <glyph glyph-name="itilde" unicode="&#x129;" 
d="M188 0v1020h136v-1020h-136zM432 1380h82q0 -72 -31.5 -120t-107.5 -48q-41 0 -77.5 19t-58 41.5t-48.5 41.5t-50 19q-59 0 -59 -82h-80q0 68 33.5 116t111.5 48q37 0 71 -19t54.5 -41.5t47.5 -41.5t53 -19t40.5 20.5t16.5 35.5t2 30z" />
    <glyph glyph-name="Imacron" unicode="&#x12a;" horiz-adv-x="557" 
d="M211 1434h135v-1434h-135v1434zM61 1776h435v-82h-435v82z" />
    <glyph glyph-name="imacron" unicode="&#x12b;" 
d="M188 0v1020h136v-1020h-136zM41 1366h434v-82h-434v82z" />
    <glyph glyph-name="Ibreve" unicode="&#x12c;" horiz-adv-x="557" 
d="M211 1434h135v-1434h-135v1434zM410 1815h96q0 -96 -61 -151.5t-166 -55.5q-106 0 -167 56t-61 151h94q0 -113 134 -113q131 0 131 113z" />
    <glyph glyph-name="ibreve" unicode="&#x12d;" 
d="M190 0v1020h136v-1020h-136zM391 1405h96q0 -96 -61 -151.5t-166 -55.5t-166 55.5t-61 151.5h94q0 -113 133 -113q131 0 131 113z" />
    <glyph glyph-name="Iogonek" unicode="&#x12e;" horiz-adv-x="557" 
d="M313 0q-17 -14 -80 -86q-57 -67 -69 -129t20 -92q26 -26 74.5 -25t83.5 29v-94q-25 -22 -71.5 -28t-94 10t-72.5 50q-27 38 -28 86t29 108t92 122q14 14 30.5 29.5t20.5 19.5h-37v1434h135v-1434h-33z" />
    <glyph glyph-name="iogonek" unicode="&#x12f;" 
d="M258 1196q-35 0 -59.5 25.5t-24.5 60.5t24.5 60.5t59.5 25.5t60.5 -25.5t25.5 -60.5t-25.5 -60.5t-60.5 -25.5zM190 0v1020h136v-1020h-31q-17 -14 -80 -86q-57 -67 -69 -129t20 -92q26 -26 74.5 -25t85.5 29v-94q-26 -22 -72.5 -28t-94.5 10t-73 50q-27 38 -28.5 86
t28.5 108t92 122q14 14 30.5 29.5t20.5 19.5h-39z" />
    <glyph glyph-name="Idotaccent" unicode="&#x130;" horiz-adv-x="557" 
d="M211 1434h135v-1434h-135v1434zM279 1817q35 0 59 -24.5t24 -59.5q0 -34 -24 -59t-59 -25q-34 0 -58 25t-24 59q0 35 24 59.5t58 24.5z" />
    <glyph glyph-name="dotlessi" unicode="&#x131;" 
d="M190 0v1020h136v-1020h-136z" />
    <glyph glyph-name="IJ" unicode="&#x132;" horiz-adv-x="1716" 
d="M211 1434h135v-1434h-135v1434zM946 1434h559v-928q0 -268 -122 -400.5t-390 -132.5q-158 0 -288 56v143q123 -63 301 -63q98 0 170 30t113.5 85.5t61 125t19.5 156.5v792h-424v136z" />
    <glyph glyph-name="ij" unicode="&#x133;" horiz-adv-x="1026" 
d="M258 1196q-35 0 -59.5 25.5t-24.5 60.5t24.5 60.5t59.5 25.5t60.5 -25.5t25.5 -60.5t-25.5 -60.5t-60.5 -25.5zM190 0v1020h136v-1020h-136zM788 1196q-35 0 -59 25t-24 61t24 61t59 25t60.5 -25.5t25.5 -60.5t-25.5 -60.5t-60.5 -25.5zM721 4v1016h135v-1016
q0 -144 -22 -231.5t-95 -149.5q-56 -46 -160.5 -57.5t-220.5 14.5v123q100 -23 178 -17t113 40q44 43 58 99t14 179z" />
    <glyph glyph-name="Jcircumflex" unicode="&#x134;" horiz-adv-x="1140" 
d="M371 1434h559v-928q0 -268 -122 -400.5t-390 -132.5q-159 0 -289 56v143q123 -63 301 -63q98 0 170.5 30t114 85.5t61 125t19.5 156.5v792h-424v136zM901 1610h-102l-146 200l-145 -200h-100l190 260h113z" />
    <glyph glyph-name="jcircumflex" unicode="&#x135;" 
d="M190 4v1016h136v-1016q0 -144 -22 -231.5t-95 -149.5q-56 -46 -160.5 -57.5t-220.5 14.5v123q100 -23 178 -17t113 40q44 43 57.5 99t13.5 179zM492 1200h-103l-145 201l-146 -201h-100l190 260h113z" />
    <glyph glyph-name="Kcommaaccent" unicode="&#x136;" horiz-adv-x="1288" 
d="M1040 0l-532 659l-162 -190v-469h-135v1434h135v-750l631 750h182l-561 -666l623 -768h-181zM631 -188h108l-100 -246h-72z" />
    <glyph glyph-name="kcommaaccent" unicode="&#x137;" horiz-adv-x="1060" 
d="M848 0l-334 469l-188 -223v-246h-136v1434h136v-977l479 563h176l-377 -445l410 -575h-166zM535 -188h108l-100 -246h-72z" />
    <glyph glyph-name="kgreenlandic" unicode="&#x138;" horiz-adv-x="1060" 
d="M848 0l-334 469l-188 -223v-246h-136v1020h136v-563l479 563h176l-377 -445l410 -575h-166z" />
    <glyph glyph-name="Lacute" unicode="&#x139;" horiz-adv-x="1163" 
d="M346 135h729v-135h-864v1434h135v-1299zM399 1870h115l-188 -260h-74z" />
    <glyph glyph-name="lacute" unicode="&#x13a;" 
d="M190 1460h136v-1460h-136v1460zM367 1901h114l-188 -261h-74z" />
    <glyph glyph-name="Lcommaaccent" unicode="&#x13b;" horiz-adv-x="1163" 
d="M346 135h729v-135h-864v1434h135v-1299zM600 -188h109l-101 -246h-71z" />
    <glyph glyph-name="lcommaaccent" unicode="&#x13c;" 
d="M190 1460h136v-1460h-136v1460zM190 -188h109l-100 -246h-72z" />
    <glyph glyph-name="Lcaron" unicode="&#x13d;" horiz-adv-x="1163" 
d="M346 135h729v-135h-864v1434h135v-1299zM850 1434h141l-170 -398h-88z" />
    <glyph glyph-name="lcaron" unicode="&#x13e;" horiz-adv-x="802" 
d="M190 1460h136v-1460h-136v1460zM696 1434h142l-170 -398h-88z" />
    <glyph glyph-name="Ldot" unicode="&#x13f;" horiz-adv-x="1163" 
d="M346 135h729v-135h-864v1434h135v-1299zM840 760q35 0 59.5 -24.5t24.5 -59.5q0 -34 -24.5 -59t-59.5 -25q-34 0 -58 25t-24 59q0 35 24 59.5t58 24.5z" />
    <glyph glyph-name="ldot" unicode="&#x140;" horiz-adv-x="903" 
d="M190 1460h136v-1460h-136v1460zM686 610q35 0 59.5 -24.5t24.5 -59.5q0 -34 -24.5 -59t-59.5 -25q-34 0 -58 25t-24 59q0 35 24 59.5t58 24.5z" />
    <glyph glyph-name="Lslash" unicode="&#x141;" horiz-adv-x="1185" 
d="M369 135h729v-135h-865v584l-165 -121v166l165 121v684h136v-588l368 266v-166l-368 -266v-545z" />
    <glyph glyph-name="lslash" unicode="&#x142;" horiz-adv-x="573" 
d="M492 1016v-168l-134 -94v-754h-135v655l-131 -94v166l131 96v637h135v-540z" />
    <glyph glyph-name="Nacute" unicode="&#x143;" horiz-adv-x="1540" 
d="M1329 1434v-1434h-135l-848 1200v-1200h-135v1434h135l848 -1201v1201h135zM909 1870h115l-188 -260h-74z" />
    <glyph glyph-name="nacute" unicode="&#x144;" horiz-adv-x="1228" 
d="M657 1047q191 0 296.5 -112t105.5 -321v-614h-135v614q0 152 -75 231t-210 79q-115 0 -202 -70t-111 -145v-709h-136v1020h129v-127q52 62 141 108t197 46zM739 1460h115l-188 -260h-74z" />
    <glyph glyph-name="Ncommaaccent" unicode="&#x145;" horiz-adv-x="1540" 
d="M1329 1434v-1434h-135l-848 1200v-1200h-135v1434h135l848 -1201v1201h135zM686 -188h109l-101 -246h-71z" />
    <glyph glyph-name="ncommaaccent" unicode="&#x146;" horiz-adv-x="1228" 
d="M657 1047q191 0 296.5 -112t105.5 -321v-614h-135v614q0 152 -75 231t-210 79q-115 0 -202 -70t-111 -145v-709h-136v1020h129v-127q52 62 141 108t197 46zM602 -188h109l-101 -246h-71z" />
    <glyph glyph-name="Ncaron" unicode="&#x147;" horiz-adv-x="1540" 
d="M1329 1434v-1434h-135l-848 1200v-1200h-135v1434h135l848 -1201v1201h135zM954 1870h103l-191 -260h-112l-191 260h101l145 -201z" />
    <glyph glyph-name="ncaron" unicode="&#x148;" horiz-adv-x="1228" 
d="M657 1047q191 0 296.5 -112t105.5 -321v-614h-135v614q0 152 -75 231t-210 79q-115 0 -202 -70t-111 -145v-709h-136v1020h129v-127q52 62 141 108t197 46zM772 1460h102l-190 -260h-113l-190 260h100l146 -200z" />
    <glyph glyph-name="napostrophe" unicode="&#x149;" horiz-adv-x="1441" 
d="M870 1047q191 0 296.5 -112t105.5 -321v-614h-135v614q0 152 -75 231t-210 79q-115 0 -202 -70t-111 -145v-709h-136v1020h129v-127q52 62 141 108t197 46zM135 1151h109l-101 -246h-71z" />
    <glyph glyph-name="Eng" unicode="&#x14a;" horiz-adv-x="1542" 
d="M1196 1434h135v-1434q0 -142 -22 -229.5t-95 -149.5q-58 -47 -161 -57.5t-219 16.5v121q100 -23 177.5 -17t112.5 40q44 43 58 99t14 177l-850 1200v-1200h-135v1434h135l850 -1201v1201z" />
    <glyph glyph-name="eng" unicode="&#x14b;" horiz-adv-x="1228" 
d="M657 1047q190 0 296 -113t106 -322v-610q0 -144 -22 -231.5t-97 -149.5q-56 -47 -159.5 -57.5t-221.5 16.5v121q100 -23 179 -17t114 40q44 43 58 100t14 178v610q0 154 -75.5 234t-211.5 80q-59 0 -114 -22t-94 -56t-65.5 -70t-37.5 -69v-709h-136v1020h127v-127
q52 62 141 108t199 46z" />
    <glyph glyph-name="Omacron" unicode="&#x14c;" horiz-adv-x="1648" 
d="M825 1460q162 0 295 -58.5t219.5 -159.5t133.5 -236t47 -289t-47 -288.5t-133.5 -236t-219.5 -160.5t-295 -59q-163 0 -296 58.5t-220 160.5t-133.5 236.5t-46.5 288.5q0 155 46.5 289.5t133.5 235.5t220 159.5t296 58.5zM825 109q135 0 242 47.5t174 131.5t102 193
t35 236q0 128 -35 237t-102 192.5t-174 131t-242 47.5t-242.5 -47.5t-175 -131t-102.5 -192.5t-35 -237q0 -101 22 -191.5t67 -167t110 -132t156 -86.5t200 -31zM606 1776h434v-82h-434v82z" />
    <glyph glyph-name="omacron" unicode="&#x14d;" horiz-adv-x="1157" 
d="M584 1047q151 0 257 -68.5t157 -187.5t51 -279q0 -245 -120 -392t-345 -147t-345 147t-120 392q0 160 51 279t157 187.5t257 68.5zM584 109q166 0 244.5 108t78.5 295q0 185 -78.5 292t-244.5 107t-245 -107t-79 -292q0 -187 79 -295t245 -108zM367 1366h434v-82h-434v82
z" />
    <glyph glyph-name="Obreve" unicode="&#x14e;" horiz-adv-x="1648" 
d="M825 1460q162 0 295 -58.5t219.5 -159.5t133.5 -236t47 -289t-47 -288.5t-133.5 -236t-219.5 -160.5t-295 -59q-163 0 -296 58.5t-220 160.5t-133.5 236.5t-46.5 288.5q0 155 46.5 289.5t133.5 235.5t220 159.5t296 58.5zM825 109q135 0 242 47.5t174 131.5t102 193
t35 236q0 128 -35 237t-102 192.5t-174 131t-242 47.5t-242.5 -47.5t-175 -131t-102.5 -192.5t-35 -237q0 -101 22 -191.5t67 -167t110 -132t156 -86.5t200 -31zM954 1815h97q0 -95 -61 -151t-167 -56q-105 0 -166 55.5t-61 151.5h94q0 -113 133 -113q131 0 131 113z" />
    <glyph glyph-name="obreve" unicode="&#x14f;" horiz-adv-x="1157" 
d="M584 1047q151 0 257 -68.5t157 -187.5t51 -279q0 -245 -120 -392t-345 -147t-345 147t-120 392q0 160 51 279t157 187.5t257 68.5zM584 109q166 0 244.5 108t78.5 295q0 185 -78.5 292t-244.5 107t-245 -107t-79 -292q0 -187 79 -295t245 -108zM715 1405h96
q0 -96 -61 -151.5t-166 -55.5q-106 0 -167 56t-61 151h95q0 -113 133 -113q131 0 131 113z" />
    <glyph glyph-name="Ohungarumlaut" unicode="&#x150;" horiz-adv-x="1648" 
d="M825 1460q162 0 295 -58.5t219.5 -159.5t133.5 -236t47 -289t-47 -288.5t-133.5 -236t-219.5 -160.5t-295 -59q-163 0 -296 58.5t-220 160.5t-133.5 236.5t-46.5 288.5q0 155 46.5 289.5t133.5 235.5t220 159.5t296 58.5zM825 109q135 0 242 47.5t174 131.5t102 193
t35 236q0 128 -35 237t-102 192.5t-174 131t-242 47.5t-242.5 -47.5t-175 -131t-102.5 -192.5t-35 -237q0 -101 22 -191.5t67 -167t110 -132t156 -86.5t200 -31zM827 1870h115l-188 -260h-74zM1059 1870h115l-189 -260h-74z" />
    <glyph glyph-name="ohungarumlaut" unicode="&#x151;" horiz-adv-x="1157" 
d="M584 1047q151 0 257 -68.5t157 -187.5t51 -279q0 -245 -120 -392t-345 -147t-345 147t-120 392q0 160 51 279t157 187.5t257 68.5zM584 109q166 0 244.5 108t78.5 295q0 185 -78.5 292t-244.5 107t-245 -107t-79 -292q0 -187 79 -295t245 -108zM571 1460h115l-188 -260
h-74zM803 1460h115l-189 -260h-74z" />
    <glyph glyph-name="OE" unicode="&#x152;" horiz-adv-x="2347" 
d="M1458 135h760v-135h-895v174q-188 -201 -500 -201q-162 0 -295 58.5t-219.5 160t-133 236.5t-46.5 289t46.5 289t133 236t219.5 159.5t295 58.5q313 0 500 -203v177h887v-136l-752 2v-505h705v-136h-705v-524zM1323 426v582q-61 147 -188 232t-312 85q-135 0 -242 -47.5
t-174 -131.5t-102 -193t-35 -236q0 -128 35 -237t102 -192.5t174 -131t242 -47.5q186 0 312.5 84.5t187.5 232.5z" />
    <glyph glyph-name="oe" unicode="&#x153;" horiz-adv-x="1904" 
d="M1393 1047q211 0 318.5 -166.5t78.5 -438.5h-690q31 -340 334 -340q98 0 175.5 30t125.5 73v-150q-65 -41 -131.5 -61.5t-163.5 -20.5q-163 0 -274 71.5t-165 201.5q-51 -130 -157 -201.5t-262 -71.5q-224 0 -343.5 146t-119.5 391q0 244 119.5 390.5t343.5 146.5
q154 0 259 -70t158 -197q49 127 148 197t246 70zM582 109q85 0 148.5 29.5t101 84t55.5 126t18 161.5t-18 161.5t-55.5 126t-101 84t-148.5 29.5t-147.5 -29.5t-100.5 -84t-56 -126t-18 -161.5t18 -161.5t56 -126t100.5 -84t147.5 -29.5zM1100 578h555q0 66 -14.5 123.5
t-45 105.5t-84 76t-125.5 28q-266 0 -286 -333z" />
    <glyph glyph-name="Racute" unicode="&#x154;" horiz-adv-x="1386" 
d="M1278 0h-162l-379 555h-4h-387v-555h-135v1434h522q222 0 355 -114.5t133 -324.5q0 -170 -88 -278t-244 -144zM346 1298v-608h387q156 0 251 75.5t95 229.5q0 78 -26.5 137.5t-74 95t-109 53t-136.5 17.5h-387zM760 1870h114l-188 -260h-74z" />
    <glyph glyph-name="racute" unicode="&#x155;" horiz-adv-x="786" 
d="M651 1047q23 0 68 -5v-127q-56 9 -80 9q-248 0 -313 -217v-707h-136v1020h129v-129q41 63 121.5 109.5t210.5 46.5zM489 1460h115l-188 -260h-74z" />
    <glyph glyph-name="Rcommaaccent" unicode="&#x156;" horiz-adv-x="1386" 
d="M1278 0h-162l-379 555h-4h-387v-555h-135v1434h522q222 0 355 -114.5t133 -324.5q0 -170 -88 -278t-244 -144zM346 1298v-608h387q156 0 251 75.5t95 229.5q0 78 -26.5 137.5t-74 95t-109 53t-136.5 17.5h-387zM639 -188h109l-101 -246h-72z" />
    <glyph glyph-name="rcommaaccent" unicode="&#x157;" horiz-adv-x="786" 
d="M651 1047q23 0 68 -5v-127q-56 9 -80 9q-248 0 -313 -217v-707h-136v1020h129v-129q41 63 121.5 109.5t210.5 46.5zM190 -188h109l-100 -246h-72z" />
    <glyph glyph-name="Rcaron" unicode="&#x158;" horiz-adv-x="1386" 
d="M1278 0h-162l-379 555h-4h-387v-555h-135v1434h522q222 0 355 -114.5t133 -324.5q0 -170 -88 -278t-244 -144zM346 1298v-608h387q156 0 251 75.5t95 229.5q0 78 -26.5 137.5t-74 95t-109 53t-136.5 17.5h-387zM827 1870h103l-191 -260h-112l-191 260h101l145 -201z" />
    <glyph glyph-name="rcaron" unicode="&#x159;" horiz-adv-x="786" 
d="M651 1047q23 0 68 -5v-127q-56 9 -80 9q-248 0 -313 -217v-707h-136v1020h129v-129q41 63 121.5 109.5t210.5 46.5zM596 1460h102l-190 -260h-113l-190 260h100l146 -200z" />
    <glyph glyph-name="Sacute" unicode="&#x15a;" horiz-adv-x="1290" 
d="M666 795q18 -6 55 -19q84 -28 127.5 -44.5t112 -53t102.5 -73.5t61 -98t27 -136q0 -106 -40.5 -185t-113 -124.5t-162.5 -67t-200 -21.5q-284 0 -485 121v170q75 -60 206 -104.5t279 -44.5q25 0 49 1t63.5 6.5t72.5 15t69.5 27.5t62 42.5t42 63t16.5 85.5
q0 57 -26.5 102.5t-82.5 81.5t-116.5 62t-155.5 57q-206 67 -276 102q-124 62 -166 158q-27 64 -27 154q0 84 28 151t74 110.5t109 72.5t129.5 41t138.5 12q230 0 430 -96v-154q-180 115 -424 115q-64 0 -121 -12t-109.5 -39t-83 -78.5t-30.5 -122.5q0 -32 8.5 -59t20.5 -47
t39 -40t48.5 -33.5t65 -31t73 -28.5t87.5 -31q15 -5 23 -8zM741 1870h115l-188 -260h-74z" />
    <glyph glyph-name="sacute" unicode="&#x15b;" horiz-adv-x="946" 
d="M506 582q67 -23 112 -41t86.5 -40t66 -44.5t43.5 -51.5t26.5 -64.5t7.5 -80.5q0 -130 -107.5 -208.5t-281.5 -78.5q-194 0 -340 86v152q53 -39 145.5 -70.5t181.5 -31.5q27 0 54 2t66 11.5t68 25t50 45.5t21 71q0 61 -57 102t-189 87q-40 14 -59.5 20.5t-55 20.5
t-53.5 23.5t-46 26t-42.5 32t-32.5 37.5t-26 45.5t-14 53.5t-5 64q2 68 34.5 122t84 85.5t111.5 47.5t124 16q152 0 297 -60v-149q-47 30 -130 51.5t-159 21.5q-20 0 -38.5 -1t-55 -8.5t-62 -21t-45.5 -41.5t-20 -67q0 -68 53.5 -106.5t186.5 -83.5zM580 1460h114l-188 -260
h-74z" />
    <glyph glyph-name="Scircumflex" unicode="&#x15c;" horiz-adv-x="1290" 
d="M666 795q18 -6 55 -19q84 -28 127.5 -44.5t112 -53t102.5 -73.5t61 -98t27 -136q0 -106 -40.5 -185t-113 -124.5t-162.5 -67t-200 -21.5q-284 0 -485 121v170q75 -60 206 -104.5t279 -44.5q25 0 49 1t63.5 6.5t72.5 15t69.5 27.5t62 42.5t42 63t16.5 85.5
q0 57 -26.5 102.5t-82.5 81.5t-116.5 62t-155.5 57q-206 67 -276 102q-124 62 -166 158q-27 64 -27 154q0 84 28 151t74 110.5t109 72.5t129.5 41t138.5 12q230 0 430 -96v-154q-180 115 -424 115q-64 0 -121 -12t-109.5 -39t-83 -78.5t-30.5 -122.5q0 -32 8.5 -59t20.5 -47
t39 -40t48.5 -33.5t65 -31t73 -28.5t87.5 -31q15 -5 23 -8zM911 1610h-102l-145 200l-146 -200h-100l190 260h113z" />
    <glyph glyph-name="scircumflex" unicode="&#x15d;" horiz-adv-x="946" 
d="M506 582q67 -23 112 -41t86.5 -40t66 -44.5t43.5 -51.5t26.5 -64.5t7.5 -80.5q0 -130 -107.5 -208.5t-281.5 -78.5q-194 0 -340 86v152q53 -39 145.5 -70.5t181.5 -31.5q27 0 54 2t66 11.5t68 25t50 45.5t21 71q0 61 -57 102t-189 87q-40 14 -59.5 20.5t-55 20.5
t-53.5 23.5t-46 26t-42.5 32t-32.5 37.5t-26 45.5t-14 53.5t-5 64q2 68 34.5 122t84 85.5t111.5 47.5t124 16q152 0 297 -60v-149q-47 30 -130 51.5t-159 21.5q-20 0 -38.5 -1t-55 -8.5t-62 -21t-45.5 -41.5t-20 -67q0 -68 53.5 -106.5t186.5 -83.5zM735 1200h-102l-146 201
l-145 -201h-100l190 260h113z" />
    <glyph glyph-name="Scedilla" unicode="&#x15e;" horiz-adv-x="1290" 
d="M1151 371q0 -83 -25.5 -149t-69.5 -111t-107 -75.5t-134.5 -45.5t-155.5 -17l-41 -90q34 0 50 -2q70 -7 106.5 -43t36.5 -90q0 -79 -50 -121t-128 -49q-78 -8 -158 21v82q69 -27 135 -23q57 1 88 24.5t31 61.5q0 71 -98 78q-15 2 -92 2v55l45 96q-254 11 -434 119v170
q75 -60 205 -104.5t278 -44.5q25 0 49 1t63.5 6.5t73 15t70.5 27.5t62.5 42.5t42 63t16.5 85.5q0 57 -26.5 102.5t-82.5 81.5t-117.5 62t-156.5 57q-205 67 -274 102q-124 62 -166 158q-27 64 -27 154q0 84 27.5 151t73.5 110.5t108.5 72.5t129 41t138.5 12q228 0 432 -96
v-154q-184 115 -424 115q-65 0 -122 -12t-109 -39t-82.5 -78.5t-30.5 -122.5q0 -45 17 -80t38.5 -58t74 -48.5t89.5 -39.5t120 -43l9 -3t8 -3t9 -3q18 -6 55 -19q84 -28 127.5 -44.5t112 -53t102.5 -73.5t61 -98t27 -136z" />
    <glyph glyph-name="scedilla" unicode="&#x15f;" horiz-adv-x="946" 
d="M506 582q67 -23 112 -41t86.5 -40t66 -44.5t43.5 -51.5t26.5 -64.5t7.5 -80.5q0 -125 -99.5 -202t-263.5 -83l-41 -92q36 0 52 -2q70 -7 105.5 -43t35.5 -90q0 -79 -50 -121t-128 -49q-76 -9 -156 21v82q69 -28 133 -23q58 1 88.5 24.5t30.5 61.5q0 70 -96 78
q-16 2 -92 2v55l45 96q-169 9 -293 84v152q53 -39 145.5 -70.5t181.5 -31.5q27 0 54 2t66 11.5t68 25t50 45.5t21 71q0 61 -57 102t-189 87q-40 14 -59.5 20.5t-55 20.5t-53.5 23.5t-46 26t-42.5 32t-32.5 37.5t-26 45.5t-14 53.5t-5 64q2 68 34.5 122t84 85.5t111.5 47.5
t124 16q152 0 297 -60v-149q-47 30 -130 51.5t-159 21.5q-20 0 -38.5 -1t-55 -8.5t-62 -21t-45.5 -41.5t-20 -67q0 -68 53.5 -106.5t186.5 -83.5z" />
    <glyph glyph-name="Scaron" unicode="&#x160;" horiz-adv-x="1290" 
d="M666 795q18 -6 55 -19q84 -28 127.5 -44.5t112 -53t102.5 -73.5t61 -98t27 -136q0 -106 -40.5 -185t-113 -124.5t-162.5 -67t-200 -21.5q-284 0 -485 121v170q75 -60 206 -104.5t279 -44.5q25 0 49 1t63.5 6.5t72.5 15t69.5 27.5t62 42.5t42 63t16.5 85.5
q0 57 -26.5 102.5t-82.5 81.5t-116.5 62t-155.5 57q-206 67 -276 102q-124 62 -166 158q-27 64 -27 154q0 84 28 151t74 110.5t109 72.5t129.5 41t138.5 12q230 0 430 -96v-154q-180 115 -424 115q-64 0 -121 -12t-109.5 -39t-83 -78.5t-30.5 -122.5q0 -32 8.5 -59t20.5 -47
t39 -40t48.5 -33.5t65 -31t73 -28.5t87.5 -31q15 -5 23 -8zM807 1870h102l-190 -260h-113l-190 260h100l146 -201z" />
    <glyph glyph-name="scaron" unicode="&#x161;" horiz-adv-x="946" 
d="M506 582q67 -23 112 -41t86.5 -40t66 -44.5t43.5 -51.5t26.5 -64.5t7.5 -80.5q0 -130 -107.5 -208.5t-281.5 -78.5q-194 0 -340 86v152q53 -39 145.5 -70.5t181.5 -31.5q27 0 54 2t66 11.5t68 25t50 45.5t21 71q0 61 -57 102t-189 87q-40 14 -59.5 20.5t-55 20.5
t-53.5 23.5t-46 26t-42.5 32t-32.5 37.5t-26 45.5t-14 53.5t-5 64q2 68 34.5 122t84 85.5t111.5 47.5t124 16q152 0 297 -60v-149q-47 30 -130 51.5t-159 21.5q-20 0 -38.5 -1t-55 -8.5t-62 -21t-45.5 -41.5t-20 -67q0 -68 53.5 -106.5t186.5 -83.5zM639 1460h102l-190 -260
h-113l-190 260h100l146 -200z" />
    <glyph glyph-name="Tcommaaccent" unicode="&#x162;" horiz-adv-x="1175" 
d="M1087 1434v-136h-432v-1298h-135v1298h-432v136h999zM524 -188h109l-101 -246h-71z" />
    <glyph glyph-name="tcommaaccent" unicode="&#x163;" horiz-adv-x="835" 
d="M467 141q53 -33 130.5 -26.5t150.5 49.5v-139q-63 -40 -143 -48.5t-146.5 9t-106.5 51.5q-16 14 -29 29.5t-22.5 36.5t-16.5 35t-11 42.5t-6.5 41.5t-3.5 48.5t-1 46.5v53v52v465h-194v133h194v278h135v-278h289v-133h-289v-465v-23q0 -125 11 -177t59 -81zM387 -188h109
l-101 -246h-71z" />
    <glyph glyph-name="Tcaron" unicode="&#x164;" horiz-adv-x="1175" 
d="M1087 1434v-136h-432v-1298h-135v1298h-432v136h999zM733 1870h103l-191 -260h-113l-190 260h100l146 -201z" />
    <glyph glyph-name="tcaron" unicode="&#x165;" horiz-adv-x="1081" 
d="M467 141q53 -33 130.5 -26.5t150.5 49.5v-139q-63 -40 -143 -48.5t-146.5 9t-106.5 51.5q-16 14 -29 29.5t-22.5 36.5t-16.5 35t-11 42.5t-6.5 41.5t-3.5 48.5t-1 46.5v53v52v465h-194v133h194v278h135v-278h289v-133h-289v-465v-23q0 -125 11 -177t59 -81zM1042 1434
h142l-170 -398h-88z" />
    <glyph glyph-name="Tbar" unicode="&#x166;" horiz-adv-x="1175" 
d="M1087 1298h-432v-522h303v-121h-303v-655h-135v655h-303v121h303v522h-432v136h999v-136z" />
    <glyph glyph-name="tbar" unicode="&#x167;" horiz-adv-x="835" 
d="M467 141q53 -33 130.5 -26.5t150.5 49.5v-139q-63 -40 -143.5 -48t-146 9.5t-106.5 50.5q-16 14 -29 29.5t-22.5 36t-16.5 35t-11 42.5t-6.5 41t-3.5 48t-1 46v53v52v59h-129v123h129v285h-194v133h194v278h135v-278h289v-133h-289v-285h185v-123h-185v-59v-12
q0 -130 11 -183.5t59 -83.5z" />
    <glyph glyph-name="Utilde" unicode="&#x168;" horiz-adv-x="1439" 
d="M1094 1434h135v-912q0 -257 -127 -403t-383 -146q-129 0 -226.5 39t-159 112t-92 173t-30.5 225v912h135v-912q0 -191 90.5 -302t282.5 -111q193 0 284 111t91 302v912zM903 1790h82q0 -72 -31.5 -120t-107.5 -48q-41 0 -77.5 19t-58 41.5t-48.5 41.5t-50 19
q-59 0 -59 -82h-80q0 68 33.5 116t111.5 48q37 0 71 -19t54.5 -41.5t47.5 -41.5t53 -19t40.5 20.5t16.5 35.5t2 30z" />
    <glyph glyph-name="utilde" unicode="&#x169;" horiz-adv-x="1226" 
d="M924 1020h133v-1020h-127v129q-53 -63 -142 -109.5t-198 -46.5q-190 0 -295 113.5t-105 321.5v612h136v-612q0 -153 75 -232.5t209 -79.5q114 0 200.5 71t113.5 146v707zM817 1380h82q0 -72 -31.5 -120t-107.5 -48q-41 0 -77.5 19t-58 41.5t-48.5 41.5t-50 19
q-59 0 -59 -82h-80q0 68 33.5 116t111.5 48q37 0 71 -19t54.5 -41.5t47.5 -41.5t53 -19t40.5 20.5t16.5 35.5t2 30z" />
    <glyph glyph-name="Umacron" unicode="&#x16a;" horiz-adv-x="1439" 
d="M1094 1434h135v-912q0 -257 -127 -403t-383 -146q-129 0 -226.5 39t-159 112t-92 173t-30.5 225v912h135v-912q0 -191 90.5 -302t282.5 -111q193 0 284 111t91 302v912zM502 1776h434v-82h-434v82z" />
    <glyph glyph-name="umacron" unicode="&#x16b;" horiz-adv-x="1226" 
d="M924 1020h133v-1020h-127v129q-53 -63 -142 -109.5t-198 -46.5q-190 0 -295 113.5t-105 321.5v612h136v-612q0 -153 75 -232.5t209 -79.5q114 0 200.5 71t113.5 146v707zM422 1366h434v-82h-434v82z" />
    <glyph glyph-name="Ubreve" unicode="&#x16c;" horiz-adv-x="1439" 
d="M1094 1434h135v-912q0 -257 -127 -403t-383 -146q-129 0 -226.5 39t-159 112t-92 173t-30.5 225v912h135v-912q0 -191 90.5 -302t282.5 -111q193 0 284 111t91 302v912zM850 1815h96q0 -96 -61 -151.5t-166 -55.5t-166 55.5t-61 151.5h94q0 -113 133 -113q131 0 131 113z
" />
    <glyph glyph-name="ubreve" unicode="&#x16d;" horiz-adv-x="1226" 
d="M924 1020h133v-1020h-127v129q-53 -63 -142 -109.5t-198 -46.5q-190 0 -295 113.5t-105 321.5v612h136v-612q0 -153 75 -232.5t209 -79.5q114 0 200.5 71t113.5 146v707zM778 1405h96q0 -96 -61 -151.5t-166 -55.5t-166 55.5t-61 151.5h94q0 -113 133 -113q131 0 131 113
z" />
    <glyph glyph-name="Uring" unicode="&#x16e;" horiz-adv-x="1439" 
d="M1094 1434h135v-912q0 -257 -127 -403t-383 -146q-129 0 -226.5 39t-159 112t-92 173t-30.5 225v912h135v-912q0 -191 90.5 -302t282.5 -111q193 0 284 111t91 302v912zM721 1913q83 0 132.5 -49t49.5 -131q0 -83 -49.5 -132t-132.5 -49q-85 0 -134.5 49t-49.5 132
q0 82 50 131t134 49zM721 1640q45 0 69.5 25.5t24.5 67.5q0 41 -24.5 65.5t-69.5 24.5q-46 0 -71 -24.5t-25 -65.5q0 -42 25 -67.5t71 -25.5z" />
    <glyph glyph-name="uring" unicode="&#x16f;" horiz-adv-x="1226" 
d="M924 1020h133v-1020h-127v129q-53 -63 -142 -109.5t-198 -46.5q-190 0 -295 113.5t-105 321.5v612h136v-612q0 -153 75 -232.5t209 -79.5q114 0 200.5 71t113.5 146v707zM645 1503q83 0 132.5 -49t49.5 -131q0 -83 -49.5 -131.5t-132.5 -48.5q-85 0 -134.5 48.5
t-49.5 131.5q0 82 50 131t134 49zM645 1231q45 0 69.5 25t24.5 67q0 41 -24.5 65.5t-69.5 24.5q-46 0 -71 -24.5t-25 -65.5q0 -42 25 -67t71 -25z" />
    <glyph glyph-name="Uhungarumlaut" unicode="&#x170;" horiz-adv-x="1439" 
d="M1094 1434h135v-912q0 -257 -127 -403t-383 -146q-129 0 -226.5 39t-159 112t-92 173t-30.5 225v912h135v-912q0 -191 90.5 -302t282.5 -111q193 0 284 111t91 302v912zM702 1870h115l-188 -260h-74zM934 1870h115l-189 -260h-74z" />
    <glyph glyph-name="uhungarumlaut" unicode="&#x171;" horiz-adv-x="1226" 
d="M924 1020h133v-1020h-127v129q-53 -63 -142 -109.5t-198 -46.5q-190 0 -295 113.5t-105 321.5v612h136v-612q0 -153 75 -232.5t209 -79.5q114 0 200.5 71t113.5 146v707zM627 1460h114l-188 -260h-74zM858 1460h115l-189 -260h-73z" />
    <glyph glyph-name="Uogonek" unicode="&#x172;" horiz-adv-x="1439" 
d="M1094 1434h135v-912q0 -335 -209 -471q-78 -74 -129 -137q-56 -68 -69 -129t20 -92q26 -26 73 -25t84 29v-94q-26 -22 -72 -28t-93 10t-72 50q-29 38 -31.5 87.5t28.5 111.5t97 123q4 4 19 18t24 23q-83 -25 -180 -25q-129 0 -226.5 39t-159 112t-92 173t-30.5 225v912
h135v-912q0 -191 90.5 -302t282.5 -111t283.5 111t91.5 302v912z" />
    <glyph glyph-name="uogonek" unicode="&#x173;" horiz-adv-x="1226" 
d="M899 -307q26 -26 73.5 -25t84.5 29v-94q-26 -22 -72 -28t-93.5 10t-72.5 50q-27 38 -29 86t28.5 108.5t92.5 121.5q14 14 31 29.5t21 19.5h-33v129q-53 -63 -142 -109.5t-198 -46.5q-190 0 -295 113t-105 322v612h136v-612q0 -153 75 -232.5t209 -79.5q113 0 201.5 71.5
t112.5 145.5v707h133v-1020h-29q-17 -14 -80 -86q-57 -68 -69.5 -129t20.5 -92z" />
    <glyph glyph-name="Wcircumflex" unicode="&#x174;" horiz-adv-x="1953" 
d="M1747 1434h139l-413 -1434h-148l-348 1204l-346 -1204h-148l-415 1434h141l348 -1223l348 1223h146l348 -1223zM1225 1610h-103l-145 200l-146 -200h-100l191 260h112z" />
    <glyph glyph-name="wcircumflex" unicode="&#x175;" horiz-adv-x="1536" 
d="M1358 1020h141l-309 -1020h-148l-264 838l-264 -838h-147l-310 1020h142l243 -803l254 803h166l252 -803zM1026 1200h-102l-146 201l-145 -201h-101l191 260h113z" />
    <glyph glyph-name="Ycircumflex" unicode="&#x176;" horiz-adv-x="1370" 
d="M1313 1434l-561 -846v-588h-136v588l-559 846h160l467 -703l469 703h160zM932 1610h-103l-145 200l-145 -200h-101l191 260h112z" />
    <glyph glyph-name="ycircumflex" unicode="&#x177;" horiz-adv-x="1040" 
d="M858 1020h146l-402 -1020q-45 -113 -86.5 -190.5t-90.5 -135.5t-105.5 -85t-126.5 -27q-41 0 -89 10v121q59 -9 104.5 -3t86.5 39.5t80 98.5t84 174l-402 1018h146l327 -854zM797 1200h-103l-145 201l-146 -201h-100l191 260h112z" />
    <glyph glyph-name="Ydieresis" unicode="&#x178;" horiz-adv-x="1370" 
d="M1313 1434l-561 -846v-588h-136v588l-559 846h160l467 -703l469 703h160zM530 1817q35 0 59.5 -24.5t24.5 -59.5q0 -34 -24.5 -59t-59.5 -25q-33 0 -57 25t-24 59q0 35 23.5 59.5t57.5 24.5zM836 1817q34 0 59 -24.5t25 -59.5q0 -34 -25 -59t-59 -25q-35 0 -59.5 25
t-24.5 59q0 35 24.5 59.5t59.5 24.5z" />
    <glyph glyph-name="Zacute" unicode="&#x179;" horiz-adv-x="1298" 
d="M295 135h874v-135h-1040v135l840 1163h-832v136h998v-136zM723 1870h115l-189 -260h-74z" />
    <glyph glyph-name="zacute" unicode="&#x17a;" horiz-adv-x="983" 
d="M287 133h587v-133h-755v133l559 754h-547v133h715v-133zM588 1460h114l-188 -260h-74z" />
    <glyph glyph-name="Zdotaccent" unicode="&#x17b;" horiz-adv-x="1298" 
d="M295 135h874v-135h-1040v135l840 1163h-832v136h998v-136zM651 1817q35 0 59.5 -24.5t24.5 -59.5q0 -34 -24.5 -59t-59.5 -25q-34 0 -58 25t-24 59q0 35 24 59.5t58 24.5z" />
    <glyph glyph-name="zdotaccent" unicode="&#x17c;" horiz-adv-x="983" 
d="M287 133h587v-133h-755v133l559 754h-547v133h715v-133zM510 1407q35 0 59.5 -24.5t24.5 -59.5q0 -34 -24.5 -59t-59.5 -25q-34 0 -58 25t-24 59q0 35 24 59.5t58 24.5z" />
    <glyph glyph-name="Zcaron" unicode="&#x17d;" horiz-adv-x="1298" 
d="M295 135h874v-135h-1040v135l840 1163h-832v136h998v-136zM797 1870h102l-190 -260h-113l-190 260h100l145 -201z" />
    <glyph glyph-name="zcaron" unicode="&#x17e;" horiz-adv-x="983" 
d="M287 133h587v-133h-755v133l559 754h-547v133h715v-133zM655 1460h103l-191 -260h-112l-191 260h101l145 -200z" />
    <glyph glyph-name="longs" unicode="&#x17f;" horiz-adv-x="757" 
d="M457 1298q-44 -43 -57 -99t-13 -179v-1020h-135v887h-184v133h184q0 144 21.5 231.5t93.5 149.5q58 47 161.5 57.5t219.5 -14.5v-123q-100 23 -178 17t-113 -40z" />
    <glyph glyph-name="AEacute" unicode="&#x1fc;" horiz-adv-x="2066" 
d="M1178 135h759v-135h-895v369h-608l-198 -369h-154l770 1434h1077v-136h-751v-503h704v-136h-704v-524zM508 504h534v794h-108zM1235 1870h115l-189 -260h-74z" />
    <glyph glyph-name="aeacute" unicode="&#x1fd;" horiz-adv-x="1910" 
d="M1399 1047q211 0 318.5 -166.5t78.5 -438.5h-690q31 -340 334 -340q98 0 175.5 30t125.5 73v-150q-65 -41 -131.5 -61.5t-163.5 -20.5q-281 0 -406 207v-180h-135v129q-108 -156 -336 -156q-151 0 -253.5 69t-149.5 187.5t-47 280.5q0 246 113 391.5t337 145.5
q233 0 342 -166v139h129v-166q115 193 359 193zM582 109q85 0 148.5 29.5t101 84t55.5 126t18 161.5t-18 161.5t-55.5 126t-101 84t-148.5 29.5t-147.5 -29.5t-100.5 -84t-56 -126t-18 -161.5t18 -161.5t56 -126t100.5 -84t147.5 -29.5zM1106 578h555q0 66 -14.5 123.5
t-44.5 105.5t-83.5 76t-125.5 28q-267 0 -287 -333zM1100 1460h114l-188 -260h-74z" />
    <glyph glyph-name="Oslashacute" unicode="&#x1fe;" horiz-adv-x="1648" 
d="M1526 1460l-183 -221q177 -208 177 -522q0 -154 -47 -289t-133.5 -236.5t-219.5 -160t-295 -58.5q-244 0 -419 129l-107 -131h-176l184 224q-178 205 -178 522q0 155 46.5 289.5t133.5 235.5t220 159.5t296 58.5q247 0 418 -129l109 129h174zM270 717q0 -248 125 -414
l762 922q-137 100 -332 100q-109 0 -200 -31t-156 -86.5t-110 -132t-67 -167t-22 -191.5zM1378 717q0 251 -125 413l-759 -923q131 -98 331 -98q135 0 242 47.5t174 131t102 192.5t35 237zM936 1870h115l-189 -260h-74z" />
    <glyph glyph-name="oslashacute" unicode="&#x1ff;" horiz-adv-x="1167" 
d="M1120 1047l-155 -187q88 -137 88 -350q0 -245 -119.5 -391t-343.5 -146q-169 0 -285 86l-72 -88h-176l156 189q-88 137 -88 350q0 244 120 390.5t345 146.5q169 0 282 -86l72 86h176zM266 510q0 -147 43 -234l475 578q-75 57 -194 57q-85 0 -148.5 -29.5t-101.5 -84
t-56 -126t-18 -161.5zM911 510q0 146 -43 233l-475 -577q75 -57 197 -57q165 0 243 107.5t78 293.5zM688 1460h115l-189 -260h-73z" />
    <glyph glyph-name="Scommaaccent" unicode="&#x218;" horiz-adv-x="1290" 
d="M666 795q18 -6 55 -19q84 -28 127.5 -44.5t112 -53t102.5 -73.5t61 -98t27 -136q0 -106 -40.5 -185t-113 -124.5t-162.5 -67t-200 -21.5q-284 0 -485 121v170q75 -60 206 -104.5t279 -44.5q25 0 49 1t63.5 6.5t72.5 15t69.5 27.5t62 42.5t42 63t16.5 85.5
q0 57 -26.5 102.5t-82.5 81.5t-116.5 62t-155.5 57q-206 67 -276 102q-124 62 -166 158q-27 64 -27 154q0 84 28 151t74 110.5t109 72.5t129.5 41t138.5 12q230 0 430 -96v-154q-180 115 -424 115q-64 0 -121 -12t-109.5 -39t-83 -78.5t-30.5 -122.5q0 -32 8.5 -59t20.5 -47
t39 -40t48.5 -33.5t65 -31t73 -28.5t87.5 -31q15 -5 23 -8zM567 -188h109l-101 -246h-71z" />
    <glyph glyph-name="scommaaccent" unicode="&#x219;" horiz-adv-x="946" 
d="M506 582q67 -23 112 -41t86.5 -40t66 -44.5t43.5 -51.5t26.5 -64.5t7.5 -80.5q0 -130 -107.5 -208.5t-281.5 -78.5q-194 0 -340 86v152q53 -39 145.5 -70.5t181.5 -31.5q27 0 54 2t66 11.5t68 25t50 45.5t21 71q0 61 -57 102t-189 87q-40 14 -59.5 20.5t-55 20.5
t-53.5 23.5t-46 26t-42.5 32t-32.5 37.5t-26 45.5t-14 53.5t-5 64q2 68 34.5 122t84 85.5t111.5 47.5t124 16q152 0 297 -60v-149q-47 30 -130 51.5t-159 21.5q-20 0 -38.5 -1t-55 -8.5t-62 -21t-45.5 -41.5t-20 -67q0 -68 53.5 -106.5t186.5 -83.5zM395 -188h109l-101 -246
h-71z" />
    <glyph glyph-name="circumflex" unicode="&#x2c6;" horiz-adv-x="915" 
d="M705 1200h-103l-145 201l-146 -201h-100l190 260h113z" />
    <glyph glyph-name="caron" unicode="&#x2c7;" horiz-adv-x="915" 
d="M602 1460h103l-191 -260h-113l-190 260h100l146 -200z" />
    <glyph glyph-name="breve" unicode="&#x2d8;" horiz-adv-x="876" 
d="M569 1405h97q0 -95 -61 -151t-167 -56q-105 0 -166 55.5t-61 151.5h94q0 -113 133 -113q131 0 131 113z" />
    <glyph glyph-name="dotaccent" unicode="&#x2d9;" horiz-adv-x="587" 
d="M293 1407q35 0 59.5 -24.5t24.5 -59.5q0 -34 -24.5 -59t-59.5 -25q-34 0 -58 25t-24 59q0 35 24 59.5t58 24.5z" />
    <glyph glyph-name="ring" unicode="&#x2da;" horiz-adv-x="788" 
d="M395 1503q83 0 133 -49t50 -131q0 -83 -49.5 -131.5t-133.5 -48.5q-85 0 -134.5 48.5t-49.5 131.5q0 82 50 131t134 49zM395 1231q45 0 69.5 25t24.5 67q0 41 -24.5 65.5t-69.5 24.5q-46 0 -71 -24.5t-25 -65.5q0 -42 25 -67t71 -25z" />
    <glyph glyph-name="ogonek" unicode="&#x2db;" horiz-adv-x="690" 
d="M322 -307q25 -26 72.5 -25t84.5 29v-94q-26 -22 -72 -28t-93 10t-72 50q-28 38 -29.5 86t28.5 108t93 122q37 37 51 49h64q-36 -36 -80 -86q-56 -68 -68 -129t21 -92z" />
    <glyph glyph-name="tilde" unicode="&#x2dc;" horiz-adv-x="933" 
d="M641 1380h82q0 -72 -31.5 -120t-107.5 -48q-41 0 -77.5 19t-58 41.5t-48.5 41.5t-50 19q-59 0 -59 -82h-80q0 68 33.5 116t111.5 48q37 0 71 -19t54.5 -41.5t47.5 -41.5t53 -19t40.5 20.5t16.5 35.5t2 30z" />
    <glyph glyph-name="hungarumlaut" unicode="&#x2dd;" horiz-adv-x="915" 
d="M358 1460h115l-188 -260h-74zM590 1460h115l-189 -260h-74z" />
    <glyph glyph-name="Wgrave" unicode="&#x1e80;" horiz-adv-x="1953" 
d="M1747 1434h139l-413 -1434h-148l-348 1204l-346 -1204h-148l-415 1434h141l348 -1223l348 1223h146l348 -1223zM858 1870l148 -260h-74l-189 260h115z" />
    <glyph glyph-name="wgrave" unicode="&#x1e81;" horiz-adv-x="1536" 
d="M1358 1020h141l-309 -1020h-148l-264 838l-264 -838h-147l-310 1020h142l243 -803l254 803h166l252 -803zM672 1460l147 -260h-74l-188 260h115z" />
    <glyph glyph-name="Wacute" unicode="&#x1e82;" horiz-adv-x="1953" 
d="M1747 1434h139l-413 -1434h-148l-348 1204l-346 -1204h-148l-415 1434h141l348 -1223l348 1223h146l348 -1223zM1106 1870h115l-189 -260h-74z" />
    <glyph glyph-name="wacute" unicode="&#x1e83;" horiz-adv-x="1536" 
d="M1358 1020h141l-309 -1020h-148l-264 838l-264 -838h-147l-310 1020h142l243 -803l254 803h166l252 -803zM905 1460h115l-189 -260h-73z" />
    <glyph glyph-name="Wdieresis" unicode="&#x1e84;" horiz-adv-x="1953" 
d="M1747 1434h139l-413 -1434h-148l-348 1204l-346 -1204h-148l-415 1434h141l348 -1223l348 1223h146l348 -1223zM823 1817q35 0 59.5 -24.5t24.5 -59.5q0 -34 -24.5 -59t-59.5 -25q-34 0 -58 25t-24 59q0 35 24 59.5t58 24.5zM1128 1817q34 0 59 -24.5t25 -59.5
q0 -34 -25 -59t-59 -25q-35 0 -59.5 25t-24.5 59q0 35 24.5 59.5t59.5 24.5z" />
    <glyph glyph-name="wdieresis" unicode="&#x1e85;" horiz-adv-x="1536" 
d="M1358 1020h141l-309 -1020h-148l-264 838l-264 -838h-147l-310 1020h142l243 -803l254 803h166l252 -803zM625 1407q35 0 59.5 -24.5t24.5 -59.5q0 -34 -24.5 -59t-59.5 -25q-34 0 -58 25t-24 59q0 35 24 59.5t58 24.5zM930 1407q34 0 59 -24.5t25 -59.5q0 -34 -25 -59
t-59 -25q-35 0 -59.5 25t-24.5 59q0 35 24.5 59.5t59.5 24.5z" />
    <glyph glyph-name="Ygrave" unicode="&#x1ef2;" horiz-adv-x="1370" 
d="M1313 1434l-561 -846v-588h-136v588l-559 846h160l467 -703l469 703h160zM612 1870l148 -260h-74l-188 260h114z" />
    <glyph glyph-name="ygrave" unicode="&#x1ef3;" horiz-adv-x="1040" 
d="M858 1020h146l-402 -1020q-45 -113 -86.5 -190.5t-90.5 -135.5t-105.5 -85t-126.5 -27q-41 0 -89 10v121q59 -9 104.5 -3t86.5 39.5t80 98.5t84 174l-402 1018h146l327 -854zM446 1460l148 -260h-74l-188 260h114z" />
    <glyph glyph-name="endash" unicode="&#x2013;" horiz-adv-x="1187" 
d="M190 655h807v-135h-807v135z" />
    <glyph glyph-name="emdash" unicode="&#x2014;" horiz-adv-x="1325" 
d="M190 655h945v-135h-945v135z" />
    <glyph glyph-name="quoteleft" unicode="&#x2018;" horiz-adv-x="516" 
d="M299 1460h88l-117 -397h-141z" />
    <glyph glyph-name="quoteright" unicode="&#x2019;" horiz-adv-x="516" 
d="M246 1460h141l-170 -397h-88z" />
    <glyph glyph-name="quotesinglbase" unicode="&#x201a;" horiz-adv-x="497" 
d="M225 88h144l-156 -383h-84z" />
    <glyph glyph-name="quotedblleft" unicode="&#x201c;" horiz-adv-x="753" 
d="M537 1460h88l-117 -397h-141zM299 1460h88l-117 -397h-141z" />
    <glyph glyph-name="quotedblright" unicode="&#x201d;" horiz-adv-x="753" 
d="M246 1460h141l-170 -397h-88zM483 1460h142l-170 -397h-88z" />
    <glyph glyph-name="quotedblbase" unicode="&#x201e;" horiz-adv-x="753" 
d="M246 88h141l-170 -397h-88zM483 88h142l-170 -397h-88z" />
    <glyph glyph-name="dagger" unicode="&#x2020;" horiz-adv-x="1159" 
d="M989 1083v-135h-342v-948h-135v948h-342v135h342v351h135v-351h342z" />
    <glyph glyph-name="daggerdbl" unicode="&#x2021;" horiz-adv-x="1159" 
d="M989 948h-342v-463h342v-135h-342v-350h-135v350h-342v135h342v463h-342v135h342v351h135v-351h342v-135z" />
    <glyph glyph-name="bullet" unicode="&#x2022;" horiz-adv-x="567" 
d="M285 674q38 0 65 -27t27 -65q0 -39 -27 -67t-65 -28t-66.5 28.5t-28.5 66.5t28 65t67 27z" />
    <glyph glyph-name="ellipsis" unicode="&#x2026;" horiz-adv-x="1382" 
d="M256 135q35 0 59.5 -24.5t24.5 -59.5t-24.5 -60.5t-59.5 -25.5t-60.5 25.5t-25.5 60.5t25.5 59.5t60.5 24.5zM692 135q35 0 59.5 -24.5t24.5 -59.5t-24.5 -60.5t-59.5 -25.5t-60.5 25.5t-25.5 60.5t25.5 59.5t60.5 24.5zM1128 135q35 0 59.5 -24.5t24.5 -59.5
t-24.5 -60.5t-59.5 -25.5t-60.5 25.5t-25.5 60.5t25.5 59.5t60.5 24.5z" />
    <glyph glyph-name="perthousand" unicode="&#x2030;" horiz-adv-x="2953" 
d="M2433 719q165 0 257.5 -101t92.5 -272q0 -172 -92.5 -273.5t-257.5 -101.5q-167 0 -259.5 101t-92.5 274q0 171 93 272t259 101zM2433 106q103 0 156 64t53 176t-53 176t-156 64t-156 -64t-53 -176t53 -176t156 -64zM872 1087q0 -171 -92.5 -271.5t-259.5 -100.5
q-165 0 -257.5 100.5t-92.5 271.5q0 172 92.5 273.5t257.5 101.5q167 0 259.5 -101t92.5 -274zM311 1087q0 -112 53 -174.5t156 -62.5q104 0 157.5 63t53.5 174q0 112 -54 176t-157 64t-156 -64t-53 -176zM1526 719q165 0 257.5 -101t92.5 -272q0 -172 -92.5 -273.5
t-257.5 -101.5q-167 0 -259.5 101t-92.5 274q0 171 93 272t259 101zM1526 106q103 0 156 64t53 176t-53 176t-156 64t-156 -64t-53 -176t53 -176t156 -64zM1442 1466h162l-996 -1499h-162z" />
    <glyph glyph-name="Euro" unicode="&#x20ac;" horiz-adv-x="1609" 
d="M1024 1325q-212 0 -347 -110t-183 -297h747l-63 -136h-705q-2 -23 -2 -65q0 -53 2 -80h701l-64 -135h-612q49 -180 183 -286.5t343 -106.5q239 0 416 163v-174q-96 -66 -199 -95.5t-231 -29.5q-264 0 -433.5 145t-224.5 384h-233l63 135h150q-4 54 -4 80q0 11 1 32t1 33
h-217l63 136h172q25 118 80 216t137 171.5t196 114t249 40.5q128 0 231 -29.5t199 -95.5v-174q-178 164 -416 164z" />
    <glyph glyph-name="ruble" unicode="&#x20bd;" horiz-adv-x="1441" 
d="M1333 993q0 -210 -132.5 -324t-354.5 -114h-387v-139h467v-135h-467v-281h-135v281h-191v135h191v139h-191v135h191v744h522q222 0 354.5 -114.5t132.5 -326.5zM459 1298v-608h387q157 0 251.5 75t94.5 228q0 154 -94.5 229.5t-251.5 75.5h-387z" />
    <glyph glyph-name="bitcoin" unicode="&#x20bf;" horiz-adv-x="1357" 
d="M1239 391q0 -93 -29 -165.5t-81 -118t-119.5 -71.5t-149.5 -34v-246h-135v244h-180v-244h-135v244h-199v1434h199v243h135v-243h180v243h135v-252q150 -25 242 -119t92 -253q0 -113 -57.5 -192t-153.5 -122q115 -42 185.5 -128.5t70.5 -219.5zM752 1298h-408v-503h408
q56 0 106 13t95 41t71.5 80.5t26.5 123.5t-26.5 121.5t-72 76t-94.5 36.5t-106 11zM788 135q47 0 88.5 6.5t83 24.5t71.5 46t48.5 74t18.5 105q0 73 -27.5 127t-74 83.5t-98.5 43.5t-110 14h-444v-524h444z" />
    <glyph glyph-name="afii61352" unicode="&#x2116;" horiz-adv-x="2359" 
d="M1837 713q-165 0 -257.5 100.5t-92.5 271.5q0 172 92.5 273.5t257.5 101.5q167 0 259.5 -101t92.5 -274q0 -171 -92.5 -271.5t-259.5 -100.5zM1837 1325q-103 0 -156 -64t-53 -176t53 -174.5t156 -62.5q104 0 157.5 63t53.5 174q0 112 -54 176t-157 64zM1196 233v1201
h135v-1434h-135l-850 1200v-1200h-135v1434h135zM1548 432v133h580v-133h-580z" />
    <glyph glyph-name="minus" unicode="&#x2212;" horiz-adv-x="987" 
d="M190 655h607v-135h-607v135z" />
    <glyph glyph-name="approxequal" unicode="&#x2248;" horiz-adv-x="1234" 
d="M416 760q-92 0 -92 -94h-134q0 43 9.5 79.5t32.5 72.5t68.5 56.5t109.5 20.5q47 0 93 -17t83 -41t72.5 -48t75.5 -41t79 -17q96 0 96 105h135q0 -47 -10.5 -86.5t-34.5 -74t-68 -54t-104 -19.5q-63 0 -128 24.5t-108.5 54.5t-92 54.5t-82.5 24.5zM813 414q96 0 96 104
h135q0 -46 -10.5 -85.5t-34.5 -74t-68 -54t-104 -19.5q-63 0 -128 24.5t-108.5 54t-92 54t-82.5 24.5q-92 0 -92 -94h-134q0 43 9.5 80t32.5 72.5t68.5 56.5t109.5 21q47 0 93 -17t83 -41t72.5 -48t75.5 -41t79 -17z" />
    <glyph glyph-name="notequal" unicode="&#x2260;" horiz-adv-x="1255" 
d="M1065 711h-293l-131 -242h424v-135h-496l-125 -232h-153l125 232h-226v135h299l132 242h-431v135h502l119 217h154l-119 -217h219v-135z" />
    <glyph glyph-name="lessequal" unicode="&#x2264;" horiz-adv-x="1185" 
d="M995 334l-805 364v148l805 364v-149l-641 -289l641 -291v-147zM190 229h805v-135h-805v135z" />
    <glyph glyph-name="greaterequal" unicode="&#x2265;" horiz-adv-x="1187" 
d="M190 1210l807 -364v-148l-807 -364v147l644 291l-644 289v149zM190 94v135h807v-135h-807z" />
    <glyph glyph-name="commaaccent" unicode="&#xf6c3;" horiz-adv-x="593" 
d="M274 -188h109l-100 -246h-72z" />
    <glyph glyph-name="ff" unicode="&#xfb00;" horiz-adv-x="1253" 
d="M952 1298q-44 -43 -57.5 -99.5t-13.5 -178.5h299v-133h-299v-887h-136v887h-360v-887h-133v887h-184v133h184q0 144 21.5 231.5t93.5 149.5q58 47 161.5 57.5t219.5 -14.5v-123q-100 23 -178 17t-113 -40q-44 -43 -58 -100t-14 -178h360q0 143 22 231t95 150
q56 47 159.5 57.5t221.5 -14.5v-123q-100 23 -178 17t-113 -40z" />
    <glyph glyph-name="fi" unicode="&#xfb01;" horiz-adv-x="1050" 
d="M385 1020h496v-1020h-136v887h-360v-887h-133v887h-184v133h184q1 74 4 117.5t14 97.5t35.5 94t63.5 72q56 46 159.5 57.5t219.5 -14.5v-123q-100 23 -178 17t-113 -40q-43 -43 -57.5 -100.5t-14.5 -177.5z" />
    <glyph glyph-name="fl" unicode="&#xfb02;" horiz-adv-x="1050" 
d="M369 1401q56 47 159 57.5t199 -8.5t154 -53v-1397h-133v887h-361v-887h-135v887h-184v133h184q0 143 22 231t95 150zM748 1020v301q-100 23 -177.5 17t-111.5 -40q-44 -43 -58 -100t-14 -178h361z" />
    <glyph glyph-name="ffi" unicode="&#xfb03;" horiz-adv-x="1546" 
d="M883 1020h493v-1020h-135v887h-358v-887h-135v887h-361v-887h-135v887h-184v133h184q0 146 21.5 233t95.5 148q56 46 159.5 57.5t219.5 -14.5v-123q-100 23 -178 17t-113 -40q-44 -43 -57 -99t-13 -179h361q0 145 21 232.5t93 148.5q58 47 161.5 57.5t219.5 -14.5v-123
q-100 23 -178 17t-113 -40q-44 -42 -56.5 -98t-12.5 -180z" />
    <glyph glyph-name="ffl" unicode="&#xfb04;" horiz-adv-x="1546" 
d="M862 1401q55 46 158.5 56.5t201 -8t154.5 -52.5v-1397h-135v887h-358v-887h-135v887h-361v-887h-135v887h-184v133h184q0 146 21.5 233t95.5 148q56 46 159.5 57.5t219.5 -14.5v-123q-100 23 -178 17t-113 -40q-43 -43 -56.5 -100t-13.5 -178h361q0 143 21.5 230.5
t92.5 150.5zM1241 1020v301q-98 23 -176 17t-113 -40q-44 -42 -56.5 -98t-12.5 -180h358z" />
    <glyph glyph-name="f_f_j" horiz-adv-x="1546" 
d="M883 1020h493v-1016q0 -146 -21 -233t-95 -148q-56 -47 -159.5 -57.5t-221.5 14.5v123q100 -23 178 -17t112 40q45 43 59.5 100t14.5 178v883h-360v-887h-135v887h-361v-887h-135v887h-184v133h184q1 74 4 117.5t14 97.5t35.5 94t63.5 72q56 46 159.5 57.5t219.5 -14.5
v-123q-100 23 -178 17t-113 -40q-43 -43 -56.5 -100t-13.5 -178h361q0 145 21 232.5t93 148.5q58 47 161.5 57.5t219.5 -14.5v-123q-100 23 -178 17t-113 -40q-44 -42 -56.5 -98t-12.5 -180z" />
    <glyph glyph-name="f_j" horiz-adv-x="1050" 
d="M385 1020h496v-1016q0 -143 -22 -231t-95 -150q-58 -47 -161.5 -57.5t-219.5 14.5v123q100 -23 178 -17t113 40q44 43 57.5 99t13.5 179v883h-360v-887h-133v887h-184v133h184q0 144 21.5 231.5t93.5 149.5q58 47 161.5 57.5t219.5 -14.5v-123q-100 23 -178 17t-113 -40
q-44 -43 -58 -100t-14 -178z" />
    </font>
</defs>
</svg>
